<svg width="182" height="144" viewBox="0 0 182 144" fill="none" xmlns="http://www.w3.org/2000/svg">
<path d="M25.9761 44.407H25.9437C25.9437 24.2699 37.0378 7.1076 52.5437 1.00545C56.7607 -0.672635 60.1993 5.27695 57.3446 9.31962L48.664 21.5239H55.2037C57.0202 21.5239 58.4476 23.202 58.4476 25.3378C58.4476 27.4735 56.9554 29.1516 55.2037 29.1516H77.8461C84.9827 29.1516 90.8217 36.0165 90.8217 44.407H136.236V36.5505C136.236 32.5078 139.026 29.1516 142.53 29.1516H168.805C172.309 29.1516 175.163 32.5078 175.228 36.5505V37.3895C175.228 39.8456 174.787 42.2254 173.944 44.407H162.188V44.4832C158.619 44.4832 155.7 47.9157 155.7 52.1109C155.7 55.6197 157.711 58.3656 160.436 59.281H160.65C154.915 63.766 148.648 67.3129 142.14 70.1885C138.976 71.5828 135.981 73.46 133.233 75.772L137.008 80.1121C142.139 76.3538 148.135 74.5604 154.169 74.9795C160.204 75.3986 165.979 78.0096 170.697 82.452C175.415 86.8944 178.845 92.9492 180.511 99.7807C182.178 106.612 182 113.883 180.002 120.591C178.003 127.298 174.284 133.111 169.356 137.227C164.428 141.343 158.534 143.559 152.49 143.569C146.445 143.579 140.546 141.383 135.608 137.284C130.67 133.185 126.936 127.384 124.922 120.684H115.216C112.997 125.215 108.657 128.311 103.797 128.311H77.8461C70.8198 128.311 64.8705 120.989 64.8705 113.056C64.8705 107.587 64.0465 102.568 62.6452 97.8007C61.8686 95.1879 60.9431 92.6395 59.8749 90.173H59.81C59.2517 88.943 58.6522 87.7394 58.0129 86.5652L53.958 91.0655C57.7602 98.2236 59.1861 106.778 57.9634 115.094C56.7408 123.409 52.9552 130.904 47.3299 136.146C41.7045 141.389 34.6338 144.01 27.4682 143.511C20.3027 143.012 13.5447 139.427 8.48525 133.441C3.42577 127.454 0.419425 119.486 0.0405179 111.059C-0.338389 102.631 1.9367 94.3351 6.43118 87.7549C10.9257 81.1747 17.3245 76.7719 24.4053 75.3874C31.4861 74.0029 38.7526 75.7338 44.8167 80.2494L49.3971 74.9711C46.8458 72.4365 44.0472 70.2677 41.0602 68.5104L37.5568 66.451L37.5049 66.4204C38.4022 64.3213 38.8856 62.0113 38.9193 59.6623C38.909 55.6266 37.5431 51.7591 35.119 48.9019C32.6948 46.0446 29.4086 44.4291 25.9761 44.407ZM122.093 90.173H121.944C120.711 92.5758 119.692 95.1311 118.901 97.8007C118.148 100.318 117.603 102.949 117.247 105.657H123.416C123.884 100.371 125.369 95.4362 127.64 91.1494L123.825 86.9771C123.211 88.0142 122.633 89.0804 122.093 90.173ZM151.463 97.8617C148.939 98.1695 146.617 99.6246 144.992 101.917C143.367 104.209 142.568 107.156 142.765 110.131C142.962 113.106 144.14 115.873 146.047 117.841C147.955 119.81 150.441 120.824 152.975 120.668C155.51 120.512 157.892 119.199 159.615 117.007C161.337 114.816 162.263 111.92 162.195 108.937C162.128 105.954 161.071 103.12 159.252 101.04C157.433 98.9597 154.994 97.7973 152.456 97.8007H152.391C152.08 97.8007 151.768 97.8236 151.463 97.8617ZM29.5638 97.8007H29.1876C26.6229 97.8071 24.1639 99.0034 22.3455 101.13C20.527 103.256 19.496 106.14 19.4765 109.156C19.4571 112.171 20.4509 115.073 22.2418 117.232C24.0327 119.39 26.4759 120.63 29.0402 120.682C31.6045 120.734 34.0827 119.594 35.9358 117.509C37.7889 115.425 38.8672 112.564 38.9362 109.55C39.0052 106.536 38.0593 103.611 36.3043 101.413C34.5492 99.214 32.1268 97.911 29.5638 97.8007ZM45.472 52.0346C45.472 56.2299 48.3915 59.6623 51.9598 59.6623H58.4476V44.407H51.9598C48.3915 44.407 45.472 47.8394 45.472 52.0346ZM69.4574 97.8007C70.6511 102.53 71.3583 107.587 71.3583 113.056C71.3583 116.885 74.4919 120.684 77.8461 120.684H103.797C107.625 120.684 110.285 117.175 110.285 113.895V113.056C110.285 107.831 110.876 102.698 112.089 97.8007H69.4574Z" fill="#0F5245"/>
</svg>
