<svg width="204" height="153" viewBox="0 0 204 153" fill="none" xmlns="http://www.w3.org/2000/svg">
<path d="M102.082 1.30396C82.2829 1.30396 60.7505 2.87742 49.6592 3.81126C42.1731 4.43809 36.5191 8.6212 36.5191 13.5463V53.7016H31.4758C28.6193 53.7016 26.4326 52.2817 26.4326 50.4268V31.5452C26.4326 27.7203 21.1135 24.2279 15.2822 24.2279H12.3666C6.53527 24.2279 1.21619 27.7203 1.21619 31.5452V42.7769C1.21619 46.8449 6.41706 50.4268 12.3666 50.4268H16.346C16.346 55.8124 23.182 60.2513 31.4758 60.2513H36.5191V120.836C36.5191 125.352 42.1731 129.023 49.1273 129.023C56.0815 129.023 61.7355 125.352 61.7355 120.836V116.32C63.4691 116.563 65.2815 116.794 67.1531 117.011H67.1728C68.867 117.229 70.6794 117.408 72.4721 117.6L74.0679 104.91L74.1073 104.641L74.1861 104.372C76.3334 95.8909 87.3262 89.725 100.348 89.725H103.815C116.818 89.725 127.81 95.763 129.938 104.104L129.997 104.359L130.056 104.628L131.691 117.612C135.513 117.216 139.118 116.781 142.428 116.333V120.836C142.428 125.352 148.082 129.023 155.036 129.023C162.01 129.023 167.644 125.352 167.644 120.836V60.2513H172.688C180.981 60.2513 187.817 55.8124 187.817 50.4268H191.797C197.746 50.4268 202.947 46.8449 202.947 42.7769V31.5452C202.947 27.7203 197.628 24.2279 191.797 24.2279H188.881C183.05 24.2279 177.731 27.7203 177.731 31.5452V50.4268C177.731 52.2817 175.544 53.7016 172.688 53.7016H167.644V13.5463C167.644 8.6212 161.99 4.43809 154.504 3.81126C143.413 2.87742 121.88 1.30396 102.082 1.30396ZM102.082 7.85366C121.309 7.85366 142.369 9.38875 153.204 10.297C155.686 10.5145 157.558 11.9088 157.558 13.5463V47.1519H113.193L141.167 26.3771C142.507 25.4304 142.842 24.0488 142.034 22.8719C141.226 21.695 139.433 20.9275 137.463 20.9275C135.966 20.9147 134.548 21.3368 133.602 22.0788L99.7964 47.1519H46.6057V13.5463C46.6057 11.9088 48.4772 10.5017 50.9594 10.297C61.7946 9.38875 82.8542 7.85366 102.082 7.85366ZM66.7788 60.2513C72.3539 60.2513 76.8653 63.1808 76.8653 66.801C76.8653 70.4213 72.3539 73.3507 66.7788 73.3507C61.2036 73.3507 56.6922 70.4213 56.6922 66.801C56.6922 63.1808 61.2036 60.2513 66.7788 60.2513ZM137.385 60.2513C142.96 60.2513 147.471 63.1808 147.471 66.801C147.471 70.4213 142.96 73.3507 137.385 73.3507C131.809 73.3507 127.298 70.4213 127.298 66.801C127.298 63.1808 131.809 60.2513 137.385 60.2513ZM100.348 96.2747C92.3103 96.2747 85.494 100.023 84.115 105.434L81.9283 123.036C81.751 124.38 82.8936 125.659 84.7651 126.247C85.1394 126.362 93.8076 129.023 102.082 129.023C110.356 129.023 119.024 126.362 119.398 126.247C121.27 125.659 122.393 124.38 122.235 123.036L119.989 105.178C118.669 100.023 111.873 96.2747 103.815 96.2747H100.348ZM86.9519 133.82V142.123C86.9519 147.534 93.7485 151.947 102.082 151.947C110.415 151.947 117.212 147.534 117.212 142.123V133.82C113.114 134.69 107.677 135.573 102.082 135.573C96.5065 135.573 91.0495 134.69 86.9519 133.82Z" fill="#0F5245" stroke="#0F5245"/>
</svg>
