<svg width="182" height="179" viewBox="0 0 182 179" fill="none" xmlns="http://www.w3.org/2000/svg">
<path d="M173.128 78.2679C172.064 76.524 161.559 72.0632 161.559 72.0632C163.386 71.1355 164.635 70.9436 164.635 67.1071C164.635 62.9219 164.614 61.5268 161.776 61.5268H152.147C152.108 61.4431 152.065 61.3559 152.026 61.2687C145.811 47.9247 144.977 44.552 135.707 40.011C123.272 33.9319 99.9602 33.625 90.8212 33.625C81.6823 33.625 58.3703 33.9319 45.9462 40.011C36.6654 44.5451 36.896 46.8783 29.6267 61.2687C29.6267 61.3071 29.5522 61.4082 29.4848 61.5268H19.8456C17.0287 61.5268 17.0075 62.9219 17.0075 67.1071C17.0075 70.9436 18.2563 71.1355 20.0833 72.0632C20.0833 72.0632 9.93331 76.8728 8.51423 78.2679C7.09514 79.6629 5.67606 89.4286 5.67606 106.17C5.67606 122.911 7.09514 139.652 7.09514 139.652H11.3311C11.3311 144.535 12.0619 145.232 14.1906 145.232H42.5723C44.7009 145.232 45.4105 144.535 45.4105 139.652H136.232C136.232 144.535 136.942 145.232 139.07 145.232H168.161C169.581 145.232 170.29 144.186 170.29 139.652H174.547C174.547 139.652 175.966 122.562 175.966 106.17C175.966 89.7773 174.193 80.0117 173.128 78.2679ZM44.4384 93.9417C37.977 94.6361 31.4826 94.9923 24.9827 95.0089C17.7383 95.0089 17.49 95.4658 16.9791 91.019C16.787 88.9836 16.8478 86.9329 17.16 84.912L17.3835 83.8482H18.4478C22.7051 83.8482 26.7034 84.0261 34.2529 86.2129C38.0927 87.3456 41.7043 89.1226 44.928 91.4654C46.4748 92.5675 46.8296 93.6138 46.8296 93.6138L44.4384 93.9417ZM132.124 119.053L130.556 122.911H51.0868C51.0868 122.911 51.2252 122.698 49.313 119.011C47.8939 116.284 49.6677 114.54 52.474 113.55C57.9091 111.624 73.7922 106.17 90.8212 106.17C107.85 106.17 124.049 110.871 129.314 113.55C131.265 114.54 133.688 115.238 132.124 119.074V119.053ZM40.9474 71.4354C39.8015 71.5005 38.6529 71.5087 37.5062 71.4598C38.4321 69.8415 38.9465 68.0384 39.8512 66.155C42.6894 60.2259 45.9355 53.5155 51.7148 50.6869C60.0661 46.5993 77.3754 44.7578 90.8212 44.7578C104.267 44.7578 121.576 46.5854 129.928 50.6869C135.707 53.5155 138.939 60.2294 141.791 66.155C142.703 68.0558 143.21 69.8729 144.161 71.5017C143.452 71.54 142.636 71.5017 140.688 71.4354H40.9474ZM164.309 91.005C163.549 95.3577 164.259 95.0089 156.66 95.0089C150.16 94.9923 143.665 94.6361 137.204 93.9417C136.193 93.7638 135.906 92.0862 136.714 91.4654C139.922 89.0963 143.538 87.3168 147.39 86.2129C154.939 84.0261 159.189 83.7331 163.386 83.8796C163.668 83.8902 163.936 84.0029 164.138 84.1961C164.341 84.3893 164.463 84.6492 164.482 84.9259C164.683 86.9561 164.625 89.003 164.309 91.019V91.005Z" fill="#0F5245"/>
</svg>
