<svg width="46" height="43" viewBox="0 0 46 43" fill="none" xmlns="http://www.w3.org/2000/svg">
<path d="M36.4167 7.16671H32.5833V5.37504C32.5833 4.89986 32.3814 4.44414 32.022 4.10814C31.6625 3.77214 31.175 3.58337 30.6667 3.58337C30.1583 3.58337 29.6708 3.77214 29.3114 4.10814C28.9519 4.44414 28.75 4.89986 28.75 5.37504V7.16671H17.25V5.37504C17.25 4.89986 17.0481 4.44414 16.6886 4.10814C16.3292 3.77214 15.8417 3.58337 15.3333 3.58337C14.825 3.58337 14.3375 3.77214 13.9781 4.10814C13.6186 4.44414 13.4167 4.89986 13.4167 5.37504V7.16671H9.58334C8.05835 7.16671 6.59581 7.733 5.51748 8.74101C4.43915 9.74902 3.83334 11.1162 3.83334 12.5417V34.0417C3.83334 35.4672 4.43915 36.8344 5.51748 37.8424C6.59581 38.8504 8.05835 39.4167 9.58334 39.4167H36.4167C37.9417 39.4167 39.4042 38.8504 40.4825 37.8424C41.5609 36.8344 42.1667 35.4672 42.1667 34.0417V12.5417C42.1667 11.1162 41.5609 9.74902 40.4825 8.74101C39.4042 7.733 37.9417 7.16671 36.4167 7.16671ZM38.3333 34.0417C38.3333 34.5169 38.1314 34.9726 37.772 35.3086C37.4125 35.6446 36.925 35.8334 36.4167 35.8334H9.58334C9.07501 35.8334 8.5875 35.6446 8.22806 35.3086C7.86861 34.9726 7.66668 34.5169 7.66668 34.0417V21.5H38.3333V34.0417ZM38.3333 17.9167H7.66668V12.5417C7.66668 12.0665 7.86861 11.6108 8.22806 11.2748C8.5875 10.9388 9.07501 10.75 9.58334 10.75H13.4167V12.5417C13.4167 13.0169 13.6186 13.4726 13.9781 13.8086C14.3375 14.1446 14.825 14.3334 15.3333 14.3334C15.8417 14.3334 16.3292 14.1446 16.6886 13.8086C17.0481 13.4726 17.25 13.0169 17.25 12.5417V10.75H28.75V12.5417C28.75 13.0169 28.9519 13.4726 29.3114 13.8086C29.6708 14.1446 30.1583 14.3334 30.6667 14.3334C31.175 14.3334 31.6625 14.1446 32.022 13.8086C32.3814 13.4726 32.5833 13.0169 32.5833 12.5417V10.75H36.4167C36.925 10.75 37.4125 10.9388 37.772 11.2748C38.1314 11.6108 38.3333 12.0665 38.3333 12.5417V17.9167Z" fill="black"/>
</svg>
