<svg width="13" height="10" viewBox="0 0 13 10" fill="none" xmlns="http://www.w3.org/2000/svg">
<path d="M1.8591 3.05848H1.85677C1.85677 1.64889 2.65077 0.447527 3.76051 0.020377C4.06232 -0.0970893 4.30841 0.319382 4.10411 0.602369L3.48284 1.45667H3.95088C4.08089 1.45667 4.18305 1.57414 4.18305 1.72364C4.18305 1.87314 4.07625 1.99061 3.95088 1.99061H5.57138C6.08214 1.99061 6.50003 2.47115 6.50003 3.05848H9.75031V2.50853C9.75031 2.22554 9.94997 1.99061 10.2007 1.99061H12.0812C12.332 1.99061 12.5363 2.22554 12.5409 2.50853V2.56726C12.5409 2.73919 12.5093 2.90578 12.449 3.05848H11.6076V3.06382C11.3522 3.06382 11.1433 3.30409 11.1433 3.59776C11.1433 3.84337 11.2872 4.03559 11.4822 4.09966H11.4976C11.0871 4.41362 10.6386 4.6619 10.1728 4.86319C9.94636 4.96079 9.73202 5.09219 9.53533 5.25403L9.80556 5.55785C10.1727 5.29476 10.6019 5.16922 11.0338 5.19856C11.4656 5.2279 11.8789 5.41067 12.2166 5.72164C12.5543 6.03261 12.7997 6.45644 12.919 6.93464C13.0383 7.41285 13.0255 7.92183 12.8825 8.39135C12.7395 8.86087 12.4733 9.26776 12.1206 9.55587C11.7679 9.84398 11.3462 9.9991 10.9135 9.99982C10.4809 10.0005 10.0588 9.84681 9.70535 9.55986C9.35194 9.27292 9.08471 8.8669 8.94053 8.39786H8.24589C8.0871 8.71502 7.77646 8.9318 7.42868 8.9318H5.57138C5.06851 8.9318 4.64273 8.41922 4.64273 7.86392C4.64273 7.48109 4.58376 7.12976 4.48346 6.79605C4.42789 6.61314 4.36165 6.43476 4.2852 6.26211H4.28055C4.2406 6.17601 4.19769 6.09176 4.15194 6.00956L3.86173 6.32458C4.13385 6.82565 4.2359 7.42443 4.1484 8.00654C4.06089 8.58866 3.78996 9.1133 3.38736 9.48024C2.98476 9.84719 2.47872 10.0307 1.96589 9.99579C1.45306 9.96085 0.969398 9.70989 0.607296 9.29084C0.245193 8.87179 0.0300332 8.31403 0.00291513 7.72411C-0.0242029 7.13419 0.138622 6.55345 0.460288 6.09284C0.781954 5.63223 1.23991 5.32403 1.74668 5.22711C2.25345 5.1302 2.7735 5.25136 3.2075 5.56746L3.53531 5.19797C3.35272 5.02055 3.15243 4.86874 2.93865 4.74573L2.68792 4.60156L2.6842 4.59943C2.74842 4.45248 2.78302 4.29079 2.78543 4.12636C2.78469 3.84386 2.68694 3.57313 2.51344 3.37313C2.33995 3.17312 2.10476 3.06003 1.8591 3.05848ZM8.73808 6.26211H8.7274C8.63918 6.4303 8.56628 6.60917 8.50963 6.79605C8.45577 6.97225 8.41677 7.15646 8.39123 7.346H8.8328C8.86623 6.97598 8.97256 6.63053 9.13508 6.33045L8.86205 6.03839C8.81809 6.11099 8.77673 6.18562 8.73808 6.26211ZM10.8401 6.80032C10.6594 6.82186 10.4932 6.92372 10.3769 7.08416C10.2606 7.24461 10.2034 7.45095 10.2175 7.65919C10.2317 7.86743 10.316 8.06109 10.4525 8.19888C10.589 8.33666 10.7669 8.40767 10.9483 8.39677C11.1297 8.38586 11.3002 8.2939 11.4235 8.14049C11.5467 7.98709 11.613 7.78437 11.6082 7.57558C11.6033 7.36678 11.5277 7.16842 11.3975 7.0228C11.2673 6.87717 11.0928 6.79581 10.9111 6.79605H10.9065C10.8842 6.79605 10.8619 6.79765 10.8401 6.80032ZM2.11587 6.79605H2.08894C1.90538 6.79649 1.7294 6.88024 1.59926 7.02908C1.46911 7.17792 1.39532 7.37982 1.39393 7.59089C1.39254 7.80195 1.46366 8.00512 1.59184 8.15621C1.72001 8.3073 1.89487 8.3941 2.07839 8.39774C2.26192 8.40138 2.43927 8.32156 2.5719 8.17564C2.70453 8.02972 2.7817 7.8295 2.78663 7.6185C2.79157 7.4075 2.72388 7.2028 2.59827 7.04888C2.47267 6.89497 2.2993 6.80377 2.11587 6.79605ZM3.25439 3.59242C3.25439 3.88609 3.46334 4.12636 3.71872 4.12636H4.18305V3.05848H3.71872C3.46334 3.05848 3.25439 3.29875 3.25439 3.59242ZM4.97101 6.79605C5.05644 7.12709 5.10705 7.48109 5.10705 7.86392C5.10705 8.13196 5.33132 8.39786 5.57138 8.39786H7.42868C7.70263 8.39786 7.89301 8.15225 7.89301 7.92266V7.86392C7.89301 7.49818 7.93526 7.13883 8.02209 6.79605H4.97101Z" fill="#13A68A"/>
</svg>
