<svg width="49" height="32" viewBox="0 0 49 32" fill="none" xmlns="http://www.w3.org/2000/svg">
<path d="M48.1833 12.8C47.8771 12.3 44.8544 11.021 44.8544 11.021C45.3801 10.755 45.7395 10.7 45.7395 9.6C45.7395 8.4 45.7333 8 44.9167 8H42.1461C42.1349 7.976 42.1226 7.951 42.1114 7.926C40.3229 4.1 40.083 3.133 37.4156 1.831C33.8376 0.0879997 27.1297 0 24.5 0C21.8703 0 15.1624 0.0879997 11.5875 1.831C8.91698 3.131 8.98333 3.8 6.89165 7.926C6.89165 7.937 6.87021 7.966 6.85081 8H4.07721C3.26667 8 3.26054 8.4 3.26054 9.6C3.26054 10.7 3.61987 10.755 4.1456 11.021C4.1456 11.021 1.225 12.4 0.816667 12.8C0.408333 13.2 0 16 0 20.8C0 25.6 0.408333 30.4 0.408333 30.4H1.62721C1.62721 31.8 1.8375 32 2.45 32H10.6167C11.2292 32 11.4333 31.8 11.4333 30.4H37.5667C37.5667 31.8 37.7708 32 38.3833 32H46.7542C47.1625 32 47.3667 31.7 47.3667 30.4H48.5917C48.5917 30.4 49 25.5 49 20.8C49 16.1 48.4896 13.3 48.1833 12.8ZM11.1536 17.294C9.29439 17.4931 7.42567 17.5952 5.55537 17.6C3.47083 17.6 3.39937 17.731 3.25238 16.456C3.19712 15.8724 3.2146 15.2844 3.30444 14.705L3.36875 14.4H3.675C4.9 14.4 6.05048 14.451 8.22281 15.078C9.32769 15.4028 10.3669 15.9123 11.2945 16.584C11.7396 16.9 11.8417 17.2 11.8417 17.2L11.1536 17.294ZM36.3845 24.494L35.9333 25.6H13.0667C13.0667 25.6 13.1065 25.539 12.5562 24.482C12.1479 23.7 12.6583 23.2 13.4658 22.916C15.0297 22.364 19.6 20.8 24.5 20.8C29.4 20.8 34.0611 22.148 35.576 22.916C36.1375 23.2 36.8347 23.4 36.3845 24.5V24.494ZM10.1491 10.841C9.81939 10.8597 9.4889 10.862 9.15892 10.848C9.42535 10.384 9.57337 9.867 9.83369 9.327C10.6504 7.627 11.5844 5.703 13.2474 4.892C15.6504 3.72 20.631 3.192 24.5 3.192C28.369 3.192 33.3496 3.716 35.7526 4.892C37.4156 5.703 38.3456 7.628 39.1663 9.327C39.4287 9.872 39.5746 10.393 39.8482 10.86C39.6441 10.871 39.4093 10.86 38.8488 10.841H10.1491ZM45.6455 16.452C45.4271 17.7 45.6312 17.6 43.4446 17.6C41.5743 17.5952 39.7056 17.4931 37.8464 17.294C37.5554 17.243 37.4727 16.762 37.7055 16.584C38.6284 15.9047 39.669 15.3945 40.7772 15.078C42.9495 14.451 44.1725 14.367 45.3801 14.409C45.4612 14.412 45.5383 14.4444 45.5966 14.4997C45.6548 14.5551 45.6901 14.6297 45.6956 14.709C45.7532 15.2911 45.7364 15.878 45.6455 16.456V16.452Z" fill="#13A68A"/>
</svg>
