<svg width="29" height="28" viewBox="0 0 29 28" fill="none" xmlns="http://www.w3.org/2000/svg">
<path d="M25.0861 0.304688H3.78176C2.10785 0.304688 0.738281 1.67425 0.738281 3.34817V24.6525C0.738281 26.3279 2.10785 27.696 3.78176 27.696H14.4339V17.0438H11.3905V13.2775H14.4339V10.1579C14.4339 6.8649 16.2783 4.55186 20.1648 4.55186L22.9085 4.5549V8.51904H21.087C19.5744 8.51904 18.9992 9.65425 18.9992 10.7073V13.279H22.907L22.0426 17.0438H18.9992V27.696H25.0861C26.76 27.696 28.1296 26.3279 28.1296 24.6525V3.34817C28.1296 1.67425 26.76 0.304688 25.0861 0.304688Z" fill="#0F5245"/>
</svg>
