<svg width="1086" height="919" viewBox="0 0 1086 919" fill="none" xmlns="http://www.w3.org/2000/svg">
<path d="M1003.15 61.3724L1003.57 60.1167L1013.07 31.4533C1014.28 23.9916 1011.86 17.8721 1004.73 13.4989L967.474 0.870287C958.555 -1.69874 953.157 1.57749 950.025 8.62068L940.341 38.8573L939.388 39.9686C752.729 17.4968 668.428 259.736 835.66 355.064L835.92 355.858L829.786 374.361L829.396 375.573C796.619 389.804 788.436 422.61 798.424 469.126L798.005 470.382L777.078 540.222C776.731 546.226 780.383 550.036 787.758 551.768L787.916 552.346C784.349 559.35 779.256 565.464 773.011 570.238C766.766 575.011 759.529 578.322 751.835 579.927L692.963 439.539H307.234C294.995 450.176 271.931 516.783 234.132 600.897C178.739 602.932 111.526 595.745 113.07 550.383C116.231 546.414 119.925 544.032 123.173 535.243C123.173 535.099 123.173 534.896 123.332 534.824C160.857 516.913 190.372 472.013 174.337 458.547C161.55 448.011 136.451 462.054 126.709 469.025C126.464 469.199 125.266 468.592 125.121 468.304C121.527 452.904 115.134 441.762 101.654 424.443C78.9509 395.231 38.9433 384.94 16.3416 412.319L16.1973 412.521C-30.6947 472.504 34.3248 573.692 83.1797 563.69C90.9589 619.169 154.376 632.072 218.025 632.101L188.221 659.105V802.754L219.973 838.663V879.695H148.214C127.82 879.695 123.591 914.002 140.896 918.663H864.352C882.061 913.266 883.461 886.204 864.352 879.695H775.1L774.075 836.599C789.951 821.733 807.92 816.09 814.083 784.28V670.391C814.083 647.299 775.115 623.456 768.548 620.064L763.684 608.446C786.257 603.438 804.298 588.038 817.763 562.059L818.875 561.698L827.419 563.82C833.336 564.036 837.522 560.63 840.495 554.843L852.604 518.313L852.878 517.505C895.628 501.889 904.836 464.349 888.426 410.01L888.657 409.332L899.972 375.112L900.521 373.567C1081.87 393.369 1156.76 156.369 1003.15 61.3724ZM332.794 879.709L332.895 844.176H663.838V879.709H332.794ZM414.411 722.97C412.967 726.643 410.559 729.859 407.44 732.279C404.849 734.331 401.883 735.861 398.708 736.782C394.36 737.666 389.923 738.039 385.488 737.893H371.618V769.154H351.513V684.983H384.709C392.098 684.983 397.761 685.772 401.696 687.35C405.909 689.163 409.544 692.099 412.203 695.836C415.377 700.172 417.008 705.446 416.836 710.817C416.845 714.989 416.021 719.121 414.411 722.97ZM441.271 684.983H464.089L490.443 769.154H469.256L464.074 751.835H436.797L431.514 769.154H414.195L441.271 684.983ZM568.192 769.154H546.356L533.366 735.786H519.236V769.154H499.449V684.983H536.44C542.017 684.793 547.583 685.594 552.879 687.35C557.161 689.061 560.766 692.128 563.141 696.081C565.846 700.283 567.261 705.185 567.211 710.182C567.211 720.285 562.342 727.535 552.605 731.932L568.192 769.154ZM628.247 684.983H647.067L626.861 715.032L652.133 769.154H630.484L613.583 732.596L601.777 749.916V769.154H582.452V684.983H601.806V724.528L628.247 684.983ZM268.352 621.666C287.114 574.601 324.64 477.339 324.64 477.339H672.469C672.469 477.339 709.402 574.298 726.851 621.666C574.903 620.901 420.329 622.431 268.352 621.666ZM916.556 365.326C885.292 365.329 854.729 356.061 828.733 338.693C802.736 321.325 782.474 296.639 770.509 267.755C758.543 238.871 755.411 207.088 761.51 176.425C767.609 145.761 782.664 117.595 804.771 95.488C826.878 73.381 855.044 58.3263 885.707 52.2277C916.371 46.129 948.154 49.2605 977.038 61.2261C1005.92 73.1916 1030.61 93.4538 1047.98 119.45C1065.34 145.446 1074.61 176.009 1074.61 207.273C1074.6 249.19 1057.95 289.389 1028.31 319.029C998.672 348.669 958.473 365.322 916.556 365.326Z" fill="#0F5245"/>
<path d="M918.115 245.144L885.987 235.907L871.886 284.979C869.866 291.983 866.681 296.823 862.332 299.498C860.211 300.739 857.861 301.537 855.423 301.845C852.985 302.153 850.511 301.964 848.148 301.29C845.785 300.615 843.583 299.47 841.675 297.921C839.767 296.373 838.192 294.455 837.046 292.282C834.833 287.769 834.732 282.049 836.743 275.121L875.148 141.618C877.371 133.921 880.739 128.922 885.251 126.622C889.764 124.323 895.869 124.289 903.566 126.521L948.568 139.511C961.875 143.36 971.814 147.329 978.386 151.418C984.661 155.179 989.981 160.341 993.93 166.5C997.801 172.595 1000.17 179.519 1000.86 186.706C1001.58 194.615 1000.77 202.589 998.462 210.188C993.381 227.825 984.101 239.626 970.621 245.592C957.141 251.557 939.639 251.408 918.115 245.144ZM932.461 163.267L908.834 156.469L893.579 209.452L917.205 216.25C924.168 218.419 931.417 219.533 938.71 219.555C944.149 219.625 949.464 217.923 953.85 214.705C957.891 211.617 960.831 206.878 962.668 200.489C964.872 192.849 964.42 185.984 961.312 179.894C957.752 173.36 948.135 167.818 932.461 163.267Z" fill="#0F5245"/>
<path d="M450.507 706.747L441.516 736.291H459.355L450.507 706.747Z" fill="#0F5245"/>
<path d="M540.208 700.613C537.157 700.064 534.055 699.846 530.957 699.963H519.295V721.425H531.39C534.301 721.548 537.215 721.266 540.049 720.588C542.002 719.91 543.679 718.612 544.826 716.893C546.222 714.991 546.957 712.685 546.919 710.326C546.95 708.053 546.212 705.836 544.826 704.034C543.721 702.401 542.092 701.194 540.208 700.613Z" fill="#0F5245"/>
<path d="M383.641 700.281H370.883V722.594H383.699C388.587 722.594 392.022 721.464 394.004 719.203C395.929 717.077 396.986 714.306 396.963 711.438C397.036 709.922 396.778 708.409 396.207 707.003C395.637 705.598 394.767 704.333 393.658 703.298C391.464 701.277 388.13 700.281 383.641 700.281Z" fill="#0F5245"/>
<path d="M448.876 598.848L428.396 530.22V598.848H412.102V514.676H442.41L456.973 565.061L472.301 514.676H502.682V598.848H483.067V530.22L462.183 598.848H448.876Z" fill="#0F5245"/>
<path d="M538.764 565.494V598.848H519.193V514.676H555.679C561.181 514.485 566.673 515.291 571.887 517.057C576.114 518.758 579.663 521.801 581.99 525.717C584.665 529.93 586.059 534.828 586.003 539.818C586.003 549.93 581.192 557.185 571.57 561.582L586.883 598.79H565.45L552.706 565.436L538.764 565.494ZM538.764 529.657V551.119H550.686C553.54 551.237 556.396 550.955 559.172 550.282C561.108 549.602 562.767 548.303 563.892 546.587C565.278 544.66 566.002 542.335 565.955 539.962C565.975 537.695 565.25 535.484 563.892 533.669C562.816 532.058 561.23 530.853 559.389 530.249C556.381 529.7 553.322 529.482 550.267 529.599L538.764 529.657Z" fill="#0F5245"/>
<path d="M498.525 107.384C428.482 107.384 388.648 174.265 388.489 217.419C388.489 217.794 388.489 218.17 388.489 218.574C387.854 260.515 448.963 343.691 496.735 424.962C496.836 425.135 497.687 425.135 497.788 424.962C556.025 332.39 609.873 250.181 608.618 218.732C608.618 218.285 608.618 217.881 608.618 217.477C608.625 203.017 605.783 188.698 600.253 175.337C594.723 161.977 586.614 149.837 576.389 139.612C566.164 129.388 554.025 121.279 540.664 115.749C527.304 110.219 512.984 107.376 498.525 107.384ZM497.644 264.961C488.119 264.969 478.805 262.152 470.881 256.866C462.958 251.58 456.78 244.063 453.129 235.265C449.479 226.467 448.52 216.784 450.374 207.441C452.228 198.098 456.812 189.515 463.545 182.778C470.278 176.04 478.859 171.451 488.201 169.592C497.542 167.732 507.226 168.685 516.026 172.33C524.826 175.975 532.347 182.149 537.638 190.07C542.929 197.99 545.751 207.302 545.749 216.827C545.749 229.588 540.681 241.827 531.661 250.852C522.64 259.878 510.405 264.953 497.644 264.961Z" fill="#0F5245"/>
</svg>
