<svg width="33" height="34" viewBox="0 0 33 34" fill="none" xmlns="http://www.w3.org/2000/svg">
<path d="M12.333 20.1667H21.9997V23.1667H12.333V21.6667V20.1667ZM12.333 11H21.9997V14H12.333V12.5V11Z" stroke="white" stroke-width="2"/>
<path d="M11.3333 12.5V15H23V10H11.3333V12.5ZM11.3333 12.5H8V21.6667H11.3333M11.3333 21.6667V24.1667H23V19.1667H11.3333V21.6667Z" stroke="white" stroke-width="2" stroke-linecap="round" stroke-linejoin="round"/>
<path d="M11.3333 12.5H8V21.6667H11.3333M11.3333 12.5V15H23V10H11.3333V12.5ZM11.3333 21.6667V24.1667H23V19.1667H11.3333V21.6667Z" stroke="white" stroke-width="2" stroke-linecap="round" stroke-linejoin="round"/>
<path d="M32.5 17C32.5 26.1269 25.3226 33.5 16.5 33.5C7.67741 33.5 0.5 26.1269 0.5 17C0.5 7.87313 7.67741 0.5 16.5 0.5C25.3226 0.5 32.5 7.87313 32.5 17Z" stroke="white"/>
</svg>
