<svg width="15" height="22" viewBox="0 0 15 22" fill="none" xmlns="http://www.w3.org/2000/svg">
<path d="M7.65801 10.4333C6.97392 10.4333 6.31785 10.1543 5.83413 9.65764C5.3504 9.16101 5.07865 8.48745 5.07865 7.78511C5.07865 7.08278 5.3504 6.40922 5.83413 5.91259C6.31785 5.41597 6.97392 5.13697 7.65801 5.13697C8.3421 5.13697 8.99817 5.41597 9.4819 5.91259C9.96562 6.40922 10.2374 7.08278 10.2374 7.78511C10.2374 8.13287 10.1707 8.47723 10.041 8.79852C9.91141 9.11981 9.72142 9.41174 9.4819 9.65764C9.24238 9.90354 8.95804 10.0986 8.64509 10.2317C8.33215 10.3648 7.99674 10.4333 7.65801 10.4333ZM7.65801 0.3703C5.74256 0.3703 3.90556 1.1515 2.55113 2.54205C1.1967 3.9326 0.435791 5.81858 0.435791 7.78511C0.435791 13.3462 7.65801 21.5555 7.65801 21.5555C7.65801 21.5555 14.8802 13.3462 14.8802 7.78511C14.8802 5.81858 14.1193 3.9326 12.7649 2.54205C11.4105 1.1515 9.57347 0.3703 7.65801 0.3703Z" fill="#0F5245"/>
</svg>
