<svg width="20" height="16" viewBox="0 0 20 16" fill="none" xmlns="http://www.w3.org/2000/svg">
<path d="M17.704 0.55542H2.29659C1.23733 0.55542 0.380296 1.42209 0.380296 2.48135L0.370667 14.0369C0.370667 15.0962 1.23733 15.9628 2.29659 15.9628H17.704C18.7633 15.9628 19.6299 15.0962 19.6299 14.0369V2.48135C19.6299 1.42209 18.7633 0.55542 17.704 0.55542ZM17.3188 4.64801L10.5107 8.90431C10.2025 9.0969 9.79807 9.0969 9.48993 8.90431L2.68178 4.64801C2.58522 4.59381 2.50066 4.52058 2.43323 4.43275C2.36579 4.34492 2.31687 4.24432 2.28944 4.13704C2.26201 4.02976 2.25663 3.91802 2.27363 3.8086C2.29063 3.69918 2.32966 3.59435 2.38835 3.50045C2.44703 3.40655 2.52416 3.32553 2.61507 3.2623C2.70597 3.19908 2.80876 3.15495 2.91722 3.1326C3.02567 3.11024 3.13753 3.11013 3.24603 3.13226C3.35453 3.15439 3.45741 3.1983 3.54844 3.26135L10.0003 7.29616L16.4521 3.26135C16.5432 3.1983 16.6461 3.15439 16.7546 3.13226C16.8631 3.11013 16.9749 3.11024 17.0834 3.1326C17.1918 3.15495 17.2946 3.19908 17.3855 3.2623C17.4764 3.32553 17.5536 3.40655 17.6122 3.50045C17.6709 3.59435 17.71 3.69918 17.727 3.8086C17.744 3.91802 17.7386 4.02976 17.7111 4.13704C17.6837 4.24432 17.6348 4.34492 17.5674 4.43275C17.4999 4.52058 17.4154 4.59381 17.3188 4.64801Z" fill="#0F5245"/>
</svg>
