<svg width="33" height="33" viewBox="0 0 33 33" fill="none" xmlns="http://www.w3.org/2000/svg">
<path d="M22.0014 23.4529L24.843 20.6101C25.2258 20.232 25.71 19.9731 26.2369 19.865C26.7639 19.7569 27.3109 19.8041 27.8115 20.0009L31.2747 21.3843C31.7806 21.5897 32.2145 21.9404 32.5215 22.392C32.8285 22.8437 32.995 23.3762 33 23.9224V30.2679C32.9971 30.6395 32.919 31.0066 32.7705 31.3472C32.622 31.6878 32.4061 31.9948 32.1359 32.2497C31.8656 32.5046 31.5466 32.7022 31.1981 32.8305C30.8495 32.9589 30.4786 33.0153 30.1076 32.9965C5.83968 31.4862 0.942959 10.9269 0.0168943 3.05856C-0.0260942 2.67217 0.0131832 2.28105 0.132143 1.91094C0.251102 1.54082 0.447047 1.2001 0.707088 0.911179C0.967128 0.622262 1.28537 0.3917 1.64088 0.234661C1.99639 0.0776223 2.3811 -0.00233406 2.76972 5.18666e-05H8.89696C9.44373 0.00167096 9.97751 0.166896 10.4297 0.474476C10.8818 0.782056 11.2316 1.21792 11.4341 1.72602L12.8169 5.19064C13.0202 5.68948 13.072 6.23719 12.966 6.76534C12.86 7.2935 12.6007 7.77869 12.2206 8.16032L9.37902 11.0031C9.37902 11.0031 11.0155 22.0823 22.0014 23.4529Z" fill="#13A68A"/>
</svg>
