<svg width="34" height="35" viewBox="0 0 34 35" fill="none" xmlns="http://www.w3.org/2000/svg">
<path d="M17.1855 3.66674C15.9085 3.66674 14.6838 4.17401 13.7809 5.07697C12.8779 5.97992 12.3706 7.20459 12.3706 8.48155C12.3706 9.75852 12.8779 10.9832 13.7809 11.8861C14.6838 12.7891 15.9085 13.2964 17.1855 13.2964C18.4624 13.2964 19.6871 12.7891 20.5901 11.8861C21.493 10.9832 22.0003 9.75852 22.0003 8.48155C22.0003 7.20459 21.493 5.97992 20.5901 5.07697C19.6871 4.17401 18.4624 3.66674 17.1855 3.66674ZM9.16077 8.48155C9.16108 6.96323 9.59213 5.47616 10.4039 4.19304C11.2156 2.90991 12.3747 1.88341 13.7465 1.23273C15.1183 0.582059 16.6466 0.333922 18.1538 0.517143C19.6611 0.700363 21.0854 1.30742 22.2614 2.26781C23.4373 3.2282 24.3167 4.50251 24.7974 5.94274C25.2781 7.38296 25.3403 8.93 24.9768 10.4042C24.6134 11.8784 23.8391 13.2192 22.7441 14.2709C21.649 15.3226 20.278 16.0421 18.7904 16.3458V26.1359H15.5805V16.3458C13.768 15.9758 12.1389 14.9909 10.969 13.5578C9.79919 12.1247 9.16039 10.3315 9.16077 8.48155ZM2.90954 16.5062H10.7657V19.7161H5.78238L4.53374 30.9507H29.8372L28.5886 19.7161H23.6052V16.5062H31.4614L33.4226 34.1606H0.948303L2.90954 16.5062Z" fill="#0F5245"/>
</svg>
