<svg width="60" height="45" viewBox="0 0 60 45" fill="none" xmlns="http://www.w3.org/2000/svg">
<path d="M30.027 0.896484C24.2954 0.896484 18.0619 1.35199 14.851 1.62233C12.6839 1.80379 11.0471 3.01477 11.0471 4.44055V16.0652H9.5871C8.76015 16.0652 8.1271 15.6542 8.1271 15.1172V9.6511C8.1271 8.54381 6.58727 7.53281 4.89916 7.53281H4.0551C2.36698 7.53281 0.827148 8.54381 0.827148 9.6511V12.9026C0.827148 14.0803 2.33276 15.1172 4.0551 15.1172H5.20712C5.20712 16.6763 7.18609 17.9613 9.5871 17.9613H11.0471V35.5002C11.0471 36.8074 12.6839 37.8703 14.6971 37.8703C16.7103 37.8703 18.347 36.8074 18.347 35.5002V34.1929C18.8489 34.2633 19.3736 34.3299 19.9154 34.3929H19.9211C20.4116 34.4558 20.9362 34.5077 21.4552 34.5632L21.9172 30.8896L21.9286 30.8118L21.9514 30.734C22.573 28.2787 25.7554 26.4937 29.5251 26.4937H30.5288C34.2929 26.4937 37.4752 28.2417 38.0911 30.6562L38.1082 30.7303L38.1254 30.8081L38.5987 34.5669C39.7051 34.4521 40.7488 34.3262 41.7069 34.1966V35.5002C41.7069 36.8074 43.3437 37.8703 45.3569 37.8703C47.3758 37.8703 49.0069 36.8074 49.0069 35.5002V17.9613H50.4668C52.8678 17.9613 54.8468 16.6763 54.8468 15.1172H55.9988C57.7212 15.1172 59.2268 14.0803 59.2268 12.9026V9.6511C59.2268 8.54381 57.687 7.53281 55.9988 7.53281H55.1548C53.4667 7.53281 51.9268 8.54381 51.9268 9.6511V15.1172C51.9268 15.6542 51.2938 16.0652 50.4668 16.0652H49.0069V4.44055C49.0069 3.01477 47.3701 1.80379 45.2029 1.62233C41.9921 1.35199 35.7586 0.896484 30.027 0.896484ZM30.027 2.79258C35.5932 2.79258 41.6898 3.23697 44.8265 3.49991C45.5451 3.56286 46.0869 3.96652 46.0869 4.44055V14.1691H33.2435L41.3419 8.15496C41.7297 7.88092 41.8267 7.48096 41.5928 7.14026C41.359 6.79955 40.84 6.57735 40.2697 6.57735C39.8363 6.57365 39.4257 6.69586 39.1519 6.91065L29.3654 14.1691H13.9671V4.44055C13.9671 3.96652 14.5089 3.55916 15.2275 3.49991C18.3642 3.23697 24.4608 2.79258 30.027 2.79258ZM19.807 17.9613C21.421 17.9613 22.727 18.8094 22.727 19.8574C22.727 20.9054 21.421 21.7535 19.807 21.7535C18.1931 21.7535 16.8871 20.9054 16.8871 19.8574C16.8871 18.8094 18.1931 17.9613 19.807 17.9613ZM40.2469 17.9613C41.8609 17.9613 43.1669 18.8094 43.1669 19.8574C43.1669 20.9054 41.8609 21.7535 40.2469 21.7535C38.6329 21.7535 37.3269 20.9054 37.3269 19.8574C37.3269 18.8094 38.6329 17.9613 40.2469 17.9613ZM29.5251 28.3898C27.1982 28.3898 25.225 29.4749 24.8258 31.0414L24.1927 36.1371C24.1414 36.526 24.4722 36.8963 25.014 37.0667C25.1223 37.1 27.6317 37.8703 30.027 37.8703C32.4223 37.8703 34.9316 37.1 35.04 37.0667C35.5818 36.8963 35.9069 36.526 35.8612 36.1371L35.2111 30.9673C34.829 29.4749 32.8614 28.3898 30.5288 28.3898H29.5251ZM25.647 39.259V41.6625C25.647 43.229 27.6146 44.5066 30.027 44.5066C32.4394 44.5066 34.4069 43.229 34.4069 41.6625V39.259C33.2207 39.5108 31.6466 39.7664 30.027 39.7664C28.413 39.7664 26.8332 39.5108 25.647 39.259Z" fill="#13A68A"/>
</svg>
