<svg width="161" height="136" viewBox="0 0 161 136" fill="none" xmlns="http://www.w3.org/2000/svg">
<path d="M148.065 9.17821L148.127 8.99301L149.529 4.76524C149.708 3.66466 149.35 2.76205 148.297 2.11703L142.799 0.254341C141.483 -0.124583 140.686 0.358652 140.224 1.3975L138.794 5.85731L138.654 6.02122C111.103 2.7067 98.66 38.4363 123.343 52.4969L123.382 52.614L122.476 55.3431L122.419 55.5219C117.581 57.6209 116.373 62.4596 117.847 69.3207L117.786 69.5059L114.697 79.8071C114.646 80.6926 115.184 81.2546 116.273 81.5101L116.296 81.5953C115.77 82.6284 115.018 83.5302 114.096 84.2343C113.175 84.9384 112.107 85.4267 110.971 85.6634L102.281 64.9567H45.3477C43.5412 66.5256 40.1371 76.3499 34.5579 88.7565C26.3819 89.0566 16.4612 87.9965 16.6891 81.3057C17.1557 80.7203 17.701 80.3691 18.1803 79.0726C18.1803 79.0514 18.1803 79.0216 18.2037 79.0109C23.7425 76.3691 28.0989 69.7464 25.7321 67.7603C23.8447 66.2063 20.1402 68.2776 18.7022 69.3058C18.666 69.3313 18.4892 69.2419 18.4679 69.1993C17.9375 66.9279 16.9937 65.2845 15.0041 62.7299C11.6532 58.4213 5.74803 56.9035 2.41202 60.9418L2.39072 60.9716C-4.53054 69.8188 5.06634 84.7437 12.2773 83.2685C13.4255 91.4515 22.786 93.3547 32.1805 93.3589L27.7815 97.3419V118.53L32.4681 123.826V129.878H21.8763C18.8663 129.878 18.2421 134.938 20.7963 135.626H127.578C130.192 134.83 130.399 130.838 127.578 129.878H114.405L114.254 123.522C116.597 121.329 119.249 120.497 120.159 115.805V99.0066C120.159 95.6005 114.407 92.0838 113.438 91.5835L112.72 89.8698C116.052 89.1312 118.714 86.8597 120.702 83.0279L120.866 82.9747L122.127 83.2876C123 83.3196 123.618 82.8172 124.057 81.9635L125.844 76.5756L125.885 76.4564C132.195 74.153 133.554 68.616 131.132 60.6012L131.166 60.5011L132.836 55.4538L132.917 55.226C159.684 58.1467 170.738 23.1899 148.065 9.17821ZM49.1204 129.88L49.1353 124.639H97.9825V129.88H49.1204ZM61.1671 106.762C60.954 107.304 60.5985 107.778 60.1382 108.135C59.7557 108.438 59.318 108.663 58.8494 108.799C58.2075 108.929 57.5527 108.984 56.898 108.963H54.8509V113.574H51.8834V101.159H56.783C57.8737 101.159 58.7095 101.275 59.2903 101.508C59.9122 101.775 60.4486 102.208 60.8412 102.76C61.3097 103.399 61.5504 104.177 61.525 104.969C61.5264 105.585 61.4047 106.194 61.1671 106.762ZM65.1316 101.159H68.4995L72.3894 113.574H69.2622L68.4974 111.019H64.4712L63.6915 113.574H61.1352L65.1316 101.159ZM83.8652 113.574H80.6421L78.7248 108.652H76.6393V113.574H73.7187V101.159H79.1786C80.0017 101.131 80.8232 101.249 81.605 101.508C82.237 101.76 82.769 102.213 83.1196 102.796C83.5189 103.416 83.7277 104.139 83.7203 104.876C83.7203 106.366 83.0017 107.435 81.5645 108.084L83.8652 113.574ZM92.7293 101.159H95.5071L92.5248 105.591L96.2549 113.574H93.0595L90.5649 108.182L88.8223 110.736V113.574H85.9699V101.159H88.8266V106.992L92.7293 101.159ZM39.6087 91.8198C42.3781 84.8778 47.9168 70.532 47.9168 70.532H99.2564C99.2564 70.532 104.708 84.8331 107.283 91.8198C84.8558 91.707 62.0405 91.9326 39.6087 91.8198ZM135.284 54.0104C130.669 54.0109 126.158 52.6438 122.321 50.0821C118.484 47.5205 115.493 43.8793 113.727 39.619C111.961 35.3588 111.499 30.6708 112.399 26.1481C113.299 21.6253 115.521 17.4709 118.784 14.2102C122.047 10.9495 126.204 8.72892 130.73 7.82939C135.256 6.92987 139.948 7.39175 144.211 9.15663C148.474 10.9215 152.118 13.9101 154.681 17.7445C157.245 21.5789 158.613 26.0868 158.612 30.6981C158.612 36.8808 156.154 42.81 151.779 47.1818C147.404 51.5536 141.471 54.0099 135.284 54.0104Z" fill="white"/>
<path d="M135.513 36.2837L130.771 34.9213L128.69 42.1592C128.392 43.1923 127.922 43.9062 127.28 44.3007C126.967 44.4837 126.62 44.6015 126.26 44.6469C125.9 44.6923 125.535 44.6644 125.186 44.565C124.838 44.4655 124.513 44.2965 124.231 44.0682C123.949 43.8398 123.717 43.5569 123.548 43.2363C123.221 42.5707 123.206 41.727 123.503 40.7052L129.172 21.0139C129.5 19.8786 129.997 19.1413 130.663 18.8021C131.329 18.4629 132.23 18.458 133.366 18.7872L140.008 20.7031C141.972 21.2708 143.44 21.8562 144.409 22.4594C145.336 23.0141 146.121 23.7755 146.704 24.684C147.275 25.5829 147.626 26.6041 147.726 27.6643C147.833 28.8308 147.713 30.0069 147.373 31.1278C146.623 33.7292 145.253 35.4698 143.263 36.3497C141.274 37.2296 138.69 37.2076 135.513 36.2837ZM137.631 24.2071L134.144 23.2044L131.892 31.0192L135.379 32.0219C136.407 32.3418 137.477 32.5062 138.553 32.5094C139.356 32.5197 140.141 32.2686 140.788 31.7941C141.385 31.3385 141.818 30.6396 142.09 29.6972C142.415 28.5704 142.348 27.5578 141.889 26.6595C141.364 25.6958 139.944 24.8784 137.631 24.2071Z" fill="white"/>
<path d="M66.4951 104.369L65.168 108.727H67.801L66.4951 104.369Z" fill="white"/>
<path d="M79.7352 103.465C79.2848 103.384 78.827 103.351 78.3697 103.369H76.6484V106.534H78.4336C78.8633 106.552 79.2935 106.511 79.7118 106.411C80 106.311 80.2476 106.119 80.4169 105.866C80.6228 105.585 80.7313 105.245 80.7258 104.897C80.7303 104.562 80.6214 104.235 80.4169 103.969C80.2538 103.728 80.0133 103.55 79.7352 103.465Z" fill="white"/>
<path d="M56.6253 103.415H54.7422V106.706H56.6339C57.3553 106.706 57.8623 106.539 58.1549 106.206C58.4391 105.892 58.595 105.484 58.5916 105.061C58.6024 104.837 58.5643 104.614 58.4801 104.407C58.3958 104.199 58.2674 104.013 58.1038 103.86C57.78 103.562 57.2879 103.415 56.6253 103.415Z" fill="white"/>
<path d="M66.2541 88.4541L63.2313 78.3318V88.4541H60.8262V76.0391H65.2997L67.4492 83.4707L69.7115 76.0391H74.1958V88.4541H71.3007V78.3318L68.2182 88.4541H66.2541Z" fill="white"/>
<path d="M79.5215 83.5347V88.4543H76.6328V76.0392H82.0181C82.8303 76.011 83.6408 76.13 84.4104 76.3905C85.0342 76.6413 85.5582 77.0901 85.9016 77.6677C86.2964 78.2891 86.5022 79.0116 86.4939 79.7476C86.4939 81.2391 85.7838 82.3092 84.3636 82.9578L86.6238 88.4458H83.4603L81.5793 83.5262L79.5215 83.5347ZM79.5215 78.2489V81.4144H81.2811C81.7023 81.4319 82.1239 81.3903 82.5337 81.2909C82.8195 81.1907 83.0643 80.9992 83.2303 80.746C83.4349 80.4618 83.5418 80.1189 83.5349 79.7688C83.5378 79.4345 83.4308 79.1084 83.2303 78.8407C83.0715 78.6029 82.8374 78.4253 82.5656 78.3362C82.1217 78.2552 81.6702 78.2231 81.2193 78.2404L79.5215 78.2489Z" fill="white"/>
<path d="M73.5818 15.9648C63.2436 15.9648 57.364 25.8296 57.3406 32.1947C57.3406 32.2501 57.3406 32.3054 57.3406 32.365C57.2468 38.5513 66.2664 50.8195 73.3176 62.8067C73.3325 62.8322 73.4582 62.8322 73.4731 62.8067C82.0688 49.1526 90.0168 37.0271 89.8315 32.3884C89.8315 32.3224 89.8315 32.2628 89.8315 32.2032C89.8326 30.0705 89.4131 27.9584 88.5969 25.9877C87.7806 24.0171 86.5837 22.2266 85.0746 20.7185C83.5654 19.2104 81.7736 18.0143 79.8016 17.1986C77.8296 16.383 75.716 15.9637 73.5818 15.9648ZM73.4518 39.2069C72.0459 39.2082 70.6712 38.7927 69.5017 38.013C68.3321 37.2334 67.4202 36.1246 66.8814 34.8269C66.3426 33.5292 66.2011 32.101 66.4748 30.723C66.7484 29.3449 67.425 28.0789 68.4188 27.0852C69.4126 26.0915 70.6791 25.4146 72.058 25.1403C73.4368 24.866 74.8661 25.0066 76.165 25.5443C77.4639 26.0819 78.574 26.9925 79.3549 28.1607C80.1359 29.329 80.5525 30.7025 80.552 32.1074C80.552 33.9896 79.8041 35.7947 78.4727 37.126C77.1413 38.4573 75.3353 39.2058 73.4518 39.2069Z" fill="white"/>
</svg>
