<?xml version="1.0" standalone="no"?>
<!DOCTYPE svg PUBLIC "-//W3C//DTD SVG 20010904//EN"
 "http://www.w3.org/TR/2001/REC-SVG-20010904/DTD/svg10.dtd">
<svg version="1.0" xmlns="http://www.w3.org/2000/svg"
 width="640.000000pt" height="480.000000pt" viewBox="0 0 640.000000 480.000000"
 preserveAspectRatio="xMidYMid meet">

<g transform="translate(0.000000,480.000000) scale(0.100000,-0.100000)"
fill="#000000" stroke="none">
<path d="M2122 3774 c-60 -30 -75 -53 -92 -141 -11 -55 -10 -64 6 -87 21 -28
60 -39 114 -33 27 3 36 9 38 27 2 14 7 19 11 12 5 -8 101 -7 361 4 195 8 549
17 785 20 381 5 462 4 715 -15 262 -20 288 -24 325 -46 48 -29 165 -133 165
-146 0 -6 -26 -22 -58 -37 l-57 -27 -866 -3 -865 -3 -22 -67 c-137 -425 -134
-1308 5 -1664 l26 -68 866 -2 866 -3 53 -24 c28 -14 52 -29 52 -34 0 -19 -126
-128 -174 -151 -45 -22 -80 -27 -296 -43 -309 -23 -767 -22 -1409 2 -371 13
-465 14 -471 4 -6 -8 -9 -5 -12 11 -6 43 -119 39 -152 -6 -17 -24 -17 -31 -6
-87 7 -34 19 -74 26 -88 15 -30 104 -79 142 -79 24 0 25 2 19 53 -10 87 -15
176 -8 132 6 -37 9 -40 46 -48 116 -25 1807 -13 2228 15 145 10 219 9 410 -3
361 -22 598 -12 831 36 134 28 192 56 272 132 43 41 144 179 144 197 0 3 11
29 24 58 125 270 184 727 141 1103 -17 148 -61 352 -102 470 -65 184 -184 347
-305 418 -67 39 -232 73 -448 93 -188 17 -215 16 -615 -6 -153 -9 -239 -9
-315 -1 -270 27 -2195 41 -2284 16 l-28 -8 7 72 c7 70 7 71 -17 71 -13 0 -48
-12 -76 -26z m75 -61 c-3 -10 -5 -2 -5 17 0 19 2 27 5 18 2 -10 2 -26 0 -35z
m10 -115 c-2 -13 -4 -5 -4 17 -1 22 1 32 4 23 2 -10 2 -28 0 -40z m2593 -248
c181 -30 456 -99 557 -139 150 -59 290 -227 356 -427 21 -66 22 -84 22 -384 0
-301 -1 -318 -23 -388 -46 -148 -137 -280 -249 -364 -50 -36 -185 -98 -215
-98 -8 0 -34 -7 -59 -15 -86 -29 -486 -108 -501 -98 -22 13 2 22 100 42 208
41 348 73 432 98 47 13 94 27 104 30 44 12 125 69 182 127 69 71 120 152 161
258 l28 73 0 330 0 330 -29 80 c-17 44 -45 107 -64 140 -43 73 -158 188 -221
219 -83 42 -294 98 -590 155 -57 12 -106 23 -109 25 -10 11 11 26 31 21 12 -2
51 -9 87 -15z m1016 -187 c29 -70 76 -277 90 -403 16 -148 18 -511 3 -683 -10
-120 -62 -366 -93 -439 -15 -35 -20 -38 -56 -38 -22 0 -40 2 -40 4 0 3 16 53
35 113 19 59 46 173 60 253 23 132 25 170 25 428 0 257 -2 298 -25 431 -14 80
-41 195 -60 254 -19 59 -35 110 -35 112 0 3 18 5 40 5 36 0 41 -3 56 -37z
m-1513 -60 c16 -58 17 -93 4 -93 -9 0 -17 15 -21 38 -8 52 -7 72 3 72 5 0 12
-8 14 -17z m82 -51 c6 -39 5 -43 -11 -40 -14 2 -20 15 -24 51 -4 26 -4 50 -1
53 11 10 29 -23 36 -64z m55 49 c13 -25 13 -91 1 -91 -14 0 -18 10 -26 63 -8
50 5 64 25 28z m71 -12 c13 -44 10 -79 -6 -79 -9 0 -15 9 -15 24 0 13 -3 38
-7 56 -5 25 -3 32 8 28 7 -2 16 -15 20 -29z m70 0 c12 -43 10 -79 -5 -79 -14
0 -26 41 -26 87 0 31 22 26 31 -8z m63 9 c12 -57 13 -79 4 -84 -5 -3 -12 -3
-15 0 -8 8 -22 90 -17 98 10 15 24 8 28 -14z m74 -43 c4 -38 2 -47 -9 -43 -13
4 -31 93 -20 104 11 10 24 -17 29 -61z m62 39 c15 -38 12 -84 -4 -84 -12 0
-26 47 -26 93 0 26 19 21 30 -9z m63 19 c3 -5 8 -29 11 -55 6 -38 4 -48 -7
-48 -14 0 -40 94 -29 105 8 7 20 6 25 -2z m76 -37 c14 -58 14 -66 -3 -66 -13
0 -39 94 -28 105 13 12 20 2 31 -39z m58 32 c6 -7 13 -32 17 -55 5 -34 3 -43
-8 -43 -19 0 -22 6 -30 63 -7 46 1 60 21 35z m-728 -70 c1 -31 -23 -39 -33
-12 -10 27 -7 72 7 77 13 4 24 -23 26 -65z m807 27 c3 -25 4 -49 0 -52 -11
-11 -23 11 -30 55 -5 33 -3 42 8 42 10 0 17 -16 22 -45z m69 -6 c4 -25 3 -45
-4 -52 -12 -12 -16 -3 -26 56 -4 29 -3 37 9 37 9 0 17 -15 21 -41z m59 15 c17
-17 22 -74 6 -74 -14 0 -30 35 -30 64 0 30 3 32 24 10z m76 -33 c0 -5 3 -16 6
-25 4 -10 1 -16 -9 -16 -8 0 -17 11 -19 25 -4 17 -1 25 8 25 8 0 14 -4 14 -9z
m-107 -70 c221 -8 229 -9 253 -32 42 -38 92 -120 120 -195 24 -63 26 -85 31
-264 9 -315 -10 -425 -95 -551 -64 -94 -51 -90 -309 -100 -279 -10 -580 -11
-771 -2 l-144 6 7 36 c22 116 22 754 0 1023 l-6 77 58 4 c116 7 634 6 856 -2z
m-903 -1195 c0 -49 -12 -85 -26 -79 -26 10 -11 103 16 103 6 0 10 -11 10 -24z
m875 -35 c-4 -26 -12 -41 -21 -41 -12 0 -13 8 -9 38 10 58 14 67 26 55 7 -7 8
-27 4 -52z m75 35 c0 -35 -10 -56 -26 -56 -16 0 -18 19 -4 54 12 33 30 34 30
2z m66 8 c-3 -9 -6 -20 -6 -25 0 -5 -6 -9 -14 -9 -9 0 -12 8 -8 25 2 14 11 25
19 25 10 0 13 -6 9 -16z m-951 -31 c-10 -59 -16 -74 -27 -71 -12 4 -12 2 -3
61 5 31 12 47 22 47 11 0 12 -9 8 -37z m69 -5 c-12 -77 -40 -89 -35 -15 3 49
7 57 27 57 11 0 13 -9 8 -42z m66 4 c0 -38 -22 -83 -35 -71 -3 4 -3 30 1 58 8
62 34 72 34 13z m65 -9 c-12 -85 -38 -89 -28 -5 4 36 10 52 21 52 11 0 13 -9
7 -47z m74 20 c-1 -42 -13 -76 -27 -81 -13 -4 -16 27 -6 77 8 39 34 42 33 4z
m63 -14 c-5 -51 -12 -71 -25 -66 -12 4 -12 38 -1 85 8 36 29 20 26 -19z m67
14 c-1 -42 -13 -75 -24 -71 -9 3 -8 74 2 91 10 17 23 5 22 -20z m68 -19 c-5
-45 -20 -74 -33 -61 -3 3 -3 29 1 56 5 36 11 51 22 51 13 0 15 -9 10 -46z m69
15 c-3 -17 -6 -40 -6 -50 0 -12 -7 -19 -19 -19 -16 0 -17 4 -8 50 6 33 15 50
25 50 11 0 13 -7 8 -31z m70 -6 c-10 -56 -16 -73 -27 -73 -10 0 -12 34 -3 79
4 18 13 31 21 31 12 0 14 -8 9 -37z m68 -5 c-7 -44 -19 -68 -36 -68 -5 0 -6
20 -2 48 8 56 11 62 30 62 11 0 13 -9 8 -42z m66 23 c0 -42 -13 -81 -27 -81
-12 0 -13 9 -8 43 4 23 9 45 12 50 8 14 23 7 23 -12z m-2863 -718 c-3 -10 -5
-2 -5 17 0 19 2 27 5 18 2 -10 2 -26 0 -35z"/>
<path d="M5747 3173 c-3 -5 4 -33 14 -63 11 -30 34 -116 52 -190 l32 -135 0
-385 c0 -367 -1 -390 -23 -485 -21 -89 -63 -240 -78 -280 -5 -11 1 -15 19 -15
22 0 27 8 52 87 15 48 39 144 53 213 25 120 26 138 26 475 1 325 -1 358 -22
465 -25 124 -70 287 -85 308 -10 13 -33 16 -40 5z"/>
<path d="M4381 2893 l-64 -4 7 -72 c24 -238 24 -607 0 -846 l-7 -74 507 6 508
5 30 34 c57 63 62 81 41 156 -26 98 -26 506 1 604 17 67 17 68 -3 100 -11 18
-31 45 -44 59 l-25 26 -248 6 c-246 7 -579 7 -703 0z"/>
<path d="M5419 2693 c-11 -28 -14 -104 -14 -293 0 -189 3 -265 14 -293 30 -88
51 29 51 292 0 270 -20 384 -51 294z"/>
<path d="M1115 3683 c-202 -25 -381 -94 -516 -200 -45 -35 -175 -172 -217
-228 -32 -43 -52 -75 -48 -75 3 0 27 13 53 29 92 55 264 112 488 160 201 42
347 69 450 81 50 6 144 20 210 31 66 11 200 26 297 33 98 7 179 14 181 17 2 2
1 29 -1 60 l-4 56 -196 6 c-109 4 -255 13 -327 22 -119 13 -296 17 -370 8z"/>
<path d="M2796 3513 l-139 -4 7 -72 c4 -39 10 -75 14 -79 5 -5 319 -7 700 -6
l691 3 -37 77 c-34 70 -40 77 -72 82 -34 6 -890 5 -1164 -1z"/>
<path d="M2427 3503 l-148 -4 6 -62 c4 -34 8 -68 10 -74 3 -10 48 -13 180 -13
l175 0 0 34 c0 18 -3 54 -6 80 -6 44 -8 46 -38 44 -17 -1 -98 -4 -179 -5z"/>
<path d="M4044 3478 c7 -18 24 -54 37 -79 l23 -46 65 -7 c149 -14 279 -3 297
25 8 13 -28 52 -85 91 -40 28 -54 32 -155 39 -61 4 -130 8 -154 8 l-42 1 14
-32z"/>
<path d="M2110 3490 c-195 -11 -300 -21 -300 -29 0 -13 133 -50 274 -76 188
-34 186 -34 185 13 -2 52 -12 95 -24 97 -5 1 -66 -1 -135 -5z"/>
<path d="M1330 3424 c-642 -104 -830 -155 -980 -263 -88 -64 -171 -172 -215
-279 -71 -174 -73 -774 -3 -958 67 -179 216 -317 416 -384 183 -63 575 -140
941 -186 l54 -7 -42 38 c-96 87 -165 266 -210 545 -34 214 -44 353 -38 550 13
427 112 809 241 928 l46 42 -33 -1 c-17 -1 -97 -12 -177 -25z"/>
<path d="M1604 3420 c-122 -80 -213 -323 -271 -725 -32 -226 -32 -354 1 -590
53 -384 109 -555 228 -688 60 -68 89 -70 243 -19 104 34 172 50 380 87 22 4
128 10 235 14 226 7 209 -7 166 131 -68 218 -105 633 -86 958 13 222 54 493
95 616 15 43 23 82 18 86 -4 4 -100 10 -213 13 -236 6 -403 32 -581 93 -134
46 -175 51 -215 24z m197 -135 c124 -38 323 -74 473 -85 113 -8 133 -12 148
-30 15 -19 15 -25 2 -68 -8 -26 -27 -105 -41 -177 -26 -127 -27 -139 -28 -495
0 -358 1 -368 29 -530 16 -91 35 -182 42 -204 12 -34 12 -42 -1 -63 -9 -12
-21 -23 -29 -23 -143 0 -438 -48 -588 -95 -101 -32 -148 -32 -175 -3 -84 96
-158 339 -193 641 -25 210 -25 274 0 491 29 252 84 463 155 589 48 85 73 92
206 52z"/>
<path d="M352 1588 c34 -49 32 -47 115 -141 240 -273 554 -374 1003 -322 80 9
234 19 343 22 l197 6 -2 36 c-1 20 1 46 5 58 10 27 2 29 -213 43 -85 5 -193
17 -240 25 -47 8 -137 22 -200 30 -435 59 -828 158 -973 246 -26 16 -50 29
-53 29 -3 0 5 -15 18 -32z"/>
<path d="M4144 1453 c-41 -4 -42 -5 -78 -81 -27 -57 -33 -78 -22 -80 7 -2 76
1 153 6 134 9 142 10 184 40 102 73 110 93 42 111 -36 10 -188 12 -279 4z"/>
<path d="M2295 1438 c-2 -7 -6 -41 -10 -74 l-6 -61 178 -5 c98 -3 179 -5 180
-3 2 1 6 36 9 78 l7 77 -177 0 c-133 0 -178 -3 -181 -12z"/>
<path d="M2676 1441 c-3 -5 -9 -40 -12 -78 l-7 -70 219 -6 c281 -9 972 -9
1053 -1 l62 7 40 78 39 79 -694 0 c-386 0 -697 -4 -700 -9z"/>
<path d="M2072 1414 c-140 -27 -262 -61 -262 -73 0 -12 80 -20 276 -27 l171
-7 6 39 c4 21 7 51 7 67 0 25 -3 27 -37 26 -21 0 -93 -12 -161 -25z"/>
</g>
</svg>
