<svg width="108" height="75" viewBox="0 0 108 75" fill="none" xmlns="http://www.w3.org/2000/svg">
<g filter="url(#filter0_d_732_3212)">
<rect x="3.32292" y="1.32292" width="101.354" height="68.3542" rx="14.5521" fill="white" stroke="#A4D9CF" stroke-width="2.64583"/>
<path fill-rule="evenodd" clip-rule="evenodd" d="M78.1487 35.6911C78.1487 48.8673 67.4205 59.5488 54.1865 59.5488C40.9526 59.5488 30.2244 48.8673 30.2244 35.6911C30.2244 22.5148 40.9526 11.8333 54.1865 11.8333C67.4205 11.8333 78.1487 22.5148 78.1487 35.6911ZM59.9434 26.8271C63.2766 27.9667 65.7149 29.6732 65.2365 32.849C64.8891 35.1745 63.5895 36.2992 61.8627 36.693C64.2317 37.9162 65.0391 40.2376 64.2889 43.0445C62.8645 47.084 59.4786 47.424 54.9751 46.5798L53.8816 50.922L51.2418 50.2687L52.3203 45.9846C51.6359 45.816 50.9364 45.6355 50.216 45.4431L49.133 49.7481L46.4962 49.0947L47.5882 44.7435L42.271 43.413L43.5826 40.4147C43.5826 40.4147 45.529 40.9263 45.5019 40.889C46.2495 41.0725 46.5819 40.5892 46.7128 40.2685L49.676 28.4828C49.709 27.9264 49.515 27.2254 48.4455 26.9598C48.4862 26.9315 46.5277 26.487 46.5277 26.487L47.2302 23.6901L52.5549 24.9983L53.6379 20.6963L56.2762 21.3497L55.2158 25.5666C55.9258 25.7262 56.6387 25.8888 57.3321 26.0604L58.3851 21.8703L61.0249 22.5236L59.9434 26.8271ZM53.6269 34.0034C55.4251 34.478 59.338 35.5109 60.02 32.8028C60.7158 30.032 56.9143 29.1952 55.0529 28.7854L55.0529 28.7854C54.842 28.739 54.656 28.6981 54.5043 28.6604L53.1896 33.8902C53.3147 33.921 53.4617 33.9598 53.6264 34.0033L53.6266 34.0033L53.6269 34.0034ZM51.5895 42.4235C53.7433 42.9884 58.4538 44.2237 59.2033 41.2396C59.9704 38.1884 55.4034 37.1721 53.1749 36.6762C52.926 36.6208 52.7062 36.5719 52.5263 36.5274L51.0763 42.2912C51.2235 42.3275 51.3958 42.3727 51.5888 42.4233L51.5893 42.4235L51.5895 42.4235Z" fill="#F7931A"/>
</g>
<defs>
<filter id="filter0_d_732_3212" x="0.488189" y="0" width="107.024" height="74.0236" filterUnits="userSpaceOnUse" color-interpolation-filters="sRGB">
<feFlood flood-opacity="0" result="BackgroundImageFix"/>
<feColorMatrix in="SourceAlpha" type="matrix" values="0 0 0 0 0 0 0 0 0 0 0 0 0 0 0 0 0 0 127 0" result="hardAlpha"/>
<feOffset dy="1.51181"/>
<feGaussianBlur stdDeviation="0.755906"/>
<feComposite in2="hardAlpha" operator="out"/>
<feColorMatrix type="matrix" values="0 0 0 0 0.470588 0 0 0 0 0.85098 0 0 0 0 0.776471 0 0 0 1 0"/>
<feBlend mode="normal" in2="BackgroundImageFix" result="effect1_dropShadow_732_3212"/>
<feBlend mode="normal" in="SourceGraphic" in2="effect1_dropShadow_732_3212" result="shape"/>
</filter>
</defs>
</svg>
