<svg width="112" height="79" viewBox="0 0 112 79" fill="none" xmlns="http://www.w3.org/2000/svg">
<g filter="url(#filter0_d_732_3216)">
<rect x="5.32292" y="1.32292" width="101.354" height="68.3542" rx="14.5521" fill="white" stroke="#A4D9CF" stroke-width="2.64583"/>
<path fill-rule="evenodd" clip-rule="evenodd" d="M53.1181 46.6175V37.6806H57.7511C59.6496 37.6806 61.252 37.0472 62.5583 35.7982L62.8718 35.4815C65.2579 32.8954 65.1012 28.8667 62.5583 26.4741C61.2868 25.2075 59.5451 24.5214 57.7511 24.5566H50.314V46.6175H53.1181ZM53.1184 34.9713V27.2658H57.8218C58.8322 27.2658 59.7903 27.6528 60.5045 28.3565C62.0201 29.8343 62.0549 32.2972 60.5916 33.8278C59.8774 34.5843 58.867 35.0065 57.8218 34.9713H53.1184ZM75.9521 32.7019C74.7504 31.5936 73.1131 31.0306 71.0405 31.0306C68.3757 31.0306 66.3727 32.0158 65.049 33.9686L67.5222 35.5343C68.4279 34.1973 69.6645 33.5288 71.2321 33.5288C72.2249 33.5288 73.1828 33.8982 73.9318 34.5667C74.6633 35.2001 75.0813 36.1149 75.0813 37.0825V37.7334C74.0014 37.1352 72.6429 36.8186 70.9708 36.8186C69.0201 36.8186 67.4526 37.276 66.2856 38.2084C65.1187 39.1408 64.5265 40.3723 64.5265 41.938C64.4916 43.363 65.1012 44.7176 66.1811 45.6324C67.2784 46.6176 68.6718 47.1102 70.309 47.1102C72.2423 47.1102 73.775 46.2482 74.942 44.5241H75.0639V46.6176H77.7461V37.3112C77.7461 35.3584 77.1539 33.8103 75.9521 32.7019ZM68.3413 43.8379C67.7664 43.4157 67.418 42.7296 67.418 41.9907C67.418 41.1639 67.8013 40.4778 68.5503 39.9324C69.3168 39.387 70.2749 39.1056 71.4072 39.1056C72.975 39.088 74.1944 39.4398 75.0654 40.1435C75.0654 41.3398 74.5951 42.3778 73.6718 43.2574C72.8356 44.1018 71.7034 44.5768 70.5188 44.5768C69.7349 44.5944 68.9684 44.3305 68.3413 43.8379ZM83.7725 53.2499L93.1429 31.5232H90.0949L85.758 42.3602H85.7058L81.2644 31.5232H78.2164L84.3647 45.65L80.8812 53.2499H83.7725Z" fill="#3C4043"/>
<path d="M43.4371 35.7454C43.4371 34.8834 43.3674 34.0214 43.2281 33.1769H31.4018V38.05H38.1771C37.8984 39.6158 36.9927 41.0232 35.669 41.9028V45.0694H39.7098C42.0786 42.8704 43.4371 39.6158 43.4371 35.7454Z" fill="#4285F4"/>
<path d="M31.4023 48.1306C34.7813 48.1306 37.6377 47.0047 39.7103 45.0695L35.6695 41.9028C34.5374 42.6769 33.0918 43.1167 31.4023 43.1167C28.1279 43.1167 25.3586 40.8825 24.3658 37.8918H20.2031V41.164C22.328 45.4389 26.6648 48.1306 31.4023 48.1306Z" fill="#34A853"/>
<path d="M24.3662 37.8918C23.8436 36.326 23.8436 34.6196 24.3662 33.0362V29.7816H20.2028C18.4086 33.3529 18.4086 37.5751 20.2028 41.1464L24.3662 37.8918Z" fill="#FBBC04"/>
<path d="M31.4023 27.8112C33.1963 27.776 34.9206 28.4621 36.2095 29.7112L39.7974 26.0871C37.5158 23.9408 34.52 22.7622 31.4023 22.7973C26.6648 22.7973 22.328 25.5066 20.2031 29.7816L24.3658 33.0538C25.3586 30.0454 28.1279 27.8112 31.4023 27.8112Z" fill="#EA4335"/>
</g>
<defs>
<filter id="filter0_d_732_3216" x="2.38419e-07" y="0" width="112" height="79" filterUnits="userSpaceOnUse" color-interpolation-filters="sRGB">
<feFlood flood-opacity="0" result="BackgroundImageFix"/>
<feColorMatrix in="SourceAlpha" type="matrix" values="0 0 0 0 0 0 0 0 0 0 0 0 0 0 0 0 0 0 127 0" result="hardAlpha"/>
<feOffset dy="4"/>
<feGaussianBlur stdDeviation="2"/>
<feComposite in2="hardAlpha" operator="out"/>
<feColorMatrix type="matrix" values="0 0 0 0 0.470588 0 0 0 0 0.85098 0 0 0 0 0.776471 0 0 0 1 0"/>
<feBlend mode="normal" in2="BackgroundImageFix" result="effect1_dropShadow_732_3216"/>
<feBlend mode="normal" in="SourceGraphic" in2="effect1_dropShadow_732_3216" result="shape"/>
</filter>
</defs>
</svg>
