<svg width="78" height="66" viewBox="0 0 78 66" fill="none" xmlns="http://www.w3.org/2000/svg">
<path d="M71.574 4.3758L71.6039 4.28628L72.2814 2.2426C72.3679 1.71058 72.1949 1.27426 71.6862 0.962465L69.0284 0.0620508C68.392 -0.121119 68.0069 0.112474 67.7834 0.614648L67.0925 2.77049L67.0245 2.84973C53.7066 1.24751 47.6917 18.519 59.6236 25.3158L59.6421 25.3724L59.2045 26.6917L59.1767 26.7781C56.8381 27.7927 56.2542 30.1318 56.9668 33.4484L56.9369 33.5379L55.4438 38.5174C55.4191 38.9455 55.6796 39.2172 56.2058 39.3407L56.2171 39.3818C55.9626 39.8812 55.5992 40.3172 55.1536 40.6575C54.7081 40.9979 54.1917 41.2339 53.6427 41.3483L49.4423 31.3388H21.9208C21.0476 32.0972 19.402 36.8463 16.7051 42.8435C12.7529 42.9886 7.95725 42.4762 8.06743 39.2419C8.29295 38.9589 8.55657 38.7891 8.78827 38.1624C8.78827 38.1521 8.78827 38.1377 8.7996 38.1326C11.477 36.8555 13.5828 33.6542 12.4388 32.6941C11.5264 31.9429 9.73565 32.9441 9.04056 33.4412C9.02306 33.4535 8.93758 33.4103 8.92729 33.3897C8.67088 32.2917 8.21469 31.4973 7.25289 30.2624C5.63307 28.1797 2.77857 27.4459 1.16596 29.398L1.15566 29.4124C-2.19004 33.6892 2.44904 40.9038 5.93479 40.1907C6.48984 44.1463 11.0146 45.0663 15.5559 45.0683L13.4294 46.9937V57.2357L15.6949 59.796V62.7216H10.5749C9.11985 62.7216 8.81813 65.1676 10.0528 65.5H61.6707C62.9343 65.1151 63.0342 63.1857 61.6707 62.7216H55.3027L55.2296 59.6489C56.3623 58.5889 57.6444 58.1866 58.0841 55.9186V47.7984C58.0841 46.1519 55.3037 44.4519 54.8352 44.2101L54.4881 43.3817C56.0987 43.0246 57.3859 41.9267 58.3467 40.0744L58.426 40.0486L59.0356 40.1999C59.4578 40.2154 59.7564 39.9725 59.9685 39.5599L60.8325 36.9553L60.8521 36.8977C63.9022 35.7843 64.5592 33.1077 63.3884 29.2334L63.4049 29.185L64.2122 26.7452L64.2513 26.6351C77.1903 28.0469 82.5338 11.149 71.574 4.3758ZM23.7446 62.7226L23.7518 60.1891H47.3642V62.7226H23.7446ZM29.5679 51.5472C29.4648 51.8091 29.293 52.0384 29.0705 52.2109C28.8856 52.3573 28.674 52.4663 28.4475 52.532C28.1372 52.595 27.8207 52.6216 27.5042 52.6112H26.5146V54.8401H25.0802V48.8387H27.4486C27.9759 48.8387 28.3799 48.895 28.6606 49.0075C28.9613 49.1368 29.2206 49.3461 29.4103 49.6126C29.6368 49.9218 29.7531 50.2978 29.7409 50.6807C29.7415 50.9782 29.6827 51.2728 29.5679 51.5472ZM31.4843 48.8387H33.1123L34.9927 54.8401H33.481L33.1113 53.6053H31.165L30.7881 54.8401H29.5524L31.4843 48.8387ZM40.54 54.8401H38.982L38.0552 52.461H37.047V54.8401H35.6352V48.8387H38.2745C38.6724 48.8252 39.0695 48.8823 39.4474 49.0075C39.753 49.1296 40.0101 49.3482 40.1796 49.6301C40.3726 49.9297 40.4735 50.2792 40.47 50.6355C40.47 51.3558 40.1226 51.8727 39.4279 52.1862L40.54 54.8401ZM44.8248 48.8387H46.1677L44.726 50.9812L46.5291 54.8401H44.9845L43.7786 52.2336L42.9363 53.4684V54.8401H41.5574V48.8387H42.9383V51.6583L44.8248 48.8387ZM19.1467 44.3243C20.4854 40.9686 23.1627 34.0339 23.1627 34.0339H47.98C47.98 34.0339 50.6152 40.947 51.8602 44.3243C41.0188 44.2698 29.9901 44.3789 19.1467 44.3243ZM65.3954 26.0475C63.1647 26.0477 60.9841 25.3868 59.1293 24.1486C57.2745 22.9103 55.8288 21.1501 54.9751 19.0907C54.1214 17.0314 53.8979 14.7652 54.3331 12.5789C54.7682 10.3927 55.8423 8.38444 57.4196 6.80822C58.997 5.23201 61.0066 4.15862 63.1944 3.72379C65.3822 3.28897 67.6499 3.51224 69.7107 4.36537C71.7716 5.21851 73.5329 6.66318 74.7721 8.5167C76.0113 10.3702 76.6726 12.5493 76.6723 14.7784C76.6721 17.7671 75.4839 20.6332 73.3691 22.7465C71.2543 24.8598 68.3862 26.0472 65.3954 26.0475Z" fill="#0F5245"/>
<path d="M65.5065 17.4787L63.2142 16.8201L62.2081 20.3189C62.064 20.8183 61.8367 21.1634 61.5264 21.3541C61.3751 21.4425 61.2074 21.4995 61.0335 21.5214C60.8596 21.5434 60.683 21.5299 60.5144 21.4818C60.3458 21.4337 60.1887 21.352 60.0526 21.2417C59.9165 21.1313 59.8041 20.9945 59.7223 20.8395C59.5644 20.5178 59.5572 20.11 59.7007 19.616L62.4409 10.0974C62.5995 9.54853 62.8397 9.19214 63.1617 9.02818C63.4837 8.86422 63.9193 8.86182 64.4685 9.02098L67.6793 9.94712C68.6287 10.2215 69.3379 10.5045 69.8068 10.7961C70.2545 11.0642 70.6341 11.4323 70.9158 11.8714C71.192 12.306 71.3614 12.7996 71.4101 13.3121C71.4617 13.876 71.4037 14.4445 71.2392 14.9863C70.8767 16.2438 70.2146 17.0853 69.2528 17.5106C68.291 17.9359 67.0422 17.9253 65.5065 17.4787ZM66.5301 11.6409L64.8443 11.1562L63.7559 14.9339L65.4416 15.4185C65.9384 15.5732 66.4556 15.6526 66.9759 15.6542C67.364 15.6592 67.7432 15.5378 68.0562 15.3084C68.3445 15.0882 68.5542 14.7504 68.6854 14.2948C68.8426 13.7501 68.8103 13.2606 68.5886 12.8264C68.3345 12.3606 67.6484 11.9654 66.5301 11.6409Z" fill="#0F5245"/>
<path d="M32.1431 50.3906L31.5016 52.4971H32.7744L32.1431 50.3906Z" fill="#0F5245"/>
<path d="M38.5433 49.9531C38.3256 49.914 38.1043 49.8984 37.8832 49.9068H37.0512V51.437H37.9141C38.1218 51.4458 38.3298 51.4257 38.532 51.3773C38.6713 51.329 38.791 51.2365 38.8728 51.1139C38.9724 50.9783 39.0248 50.8138 39.0221 50.6457C39.0243 50.4836 38.9717 50.3255 38.8728 50.197C38.794 50.0806 38.6777 49.9945 38.5433 49.9531Z" fill="#0F5245"/>
<path d="M27.3724 49.9296H26.4621V51.5205H27.3765C27.7252 51.5205 27.9703 51.4399 28.1117 51.2787C28.2491 51.1272 28.3245 50.9295 28.3229 50.7251C28.3281 50.617 28.3097 50.5091 28.2689 50.4089C28.2282 50.3087 28.1661 50.2185 28.087 50.1447C27.9305 50.0006 27.6926 49.9296 27.3724 49.9296Z" fill="#0F5245"/>
<path d="M32.0269 42.6974L30.5656 37.8043V42.6974H29.403V36.696H31.5655L32.6046 40.2884L33.6982 36.696H35.8658V42.6974H34.4664V37.8043L32.9763 42.6974H32.0269Z" fill="#0F5245"/>
<path d="M38.4402 40.3193V42.6974H37.0439V36.6961H39.6471C40.0397 36.6824 40.4315 36.7399 40.8035 36.8658C41.1051 36.9871 41.3584 37.204 41.5244 37.4833C41.7152 37.7836 41.8147 38.1329 41.8107 38.4886C41.8107 39.2097 41.4674 39.7269 40.7809 40.0404L41.8735 42.6933H40.3443L39.435 40.3152L38.4402 40.3193ZM38.4402 37.7642V39.2944H39.2908C39.4945 39.3028 39.6983 39.2827 39.8963 39.2347C40.0345 39.1863 40.1528 39.0937 40.2331 38.9713C40.332 38.8339 40.3837 38.6682 40.3803 38.4989C40.3817 38.3373 40.33 38.1797 40.2331 38.0503C40.1563 37.9353 40.0432 37.8495 39.9118 37.8064C39.6972 37.7672 39.4789 37.7517 39.261 37.7601L38.4402 37.7642Z" fill="#0F5245"/>
<path d="M35.5693 7.65643C30.5718 7.65643 27.7297 12.425 27.7184 15.5019C27.7184 15.5286 27.7184 15.5554 27.7184 15.5842C27.6731 18.5746 32.0331 24.505 35.4416 30.2995C35.4488 30.3119 35.5096 30.3119 35.5168 30.2995C39.6719 23.6992 43.5139 17.8378 43.4243 15.5955C43.4243 15.5636 43.4243 15.5348 43.4243 15.506C43.4249 14.475 43.2221 13.454 42.8275 12.5015C42.4329 11.5489 41.8544 10.6833 41.1248 9.95431C40.3953 9.2253 39.5292 8.64713 38.5759 8.25284C37.6227 7.85856 36.601 7.65589 35.5693 7.65643ZM35.5065 18.8915C34.8269 18.8922 34.1623 18.6913 33.597 18.3144C33.0316 17.9375 32.5908 17.4015 32.3304 16.7743C32.0699 16.147 32.0015 15.4566 32.1338 14.7904C32.2661 14.1243 32.5931 13.5123 33.0735 13.032C33.5539 12.5516 34.1661 12.2244 34.8327 12.0918C35.4992 11.9592 36.1901 12.0272 36.818 12.2871C37.4459 12.547 37.9825 12.9871 38.36 13.5519C38.7375 14.1166 38.9389 14.7805 38.9387 15.4597C38.9387 16.3695 38.5771 17.2421 37.9335 17.8856C37.2899 18.5292 36.4169 18.891 35.5065 18.8915Z" fill="#0F5245"/>
</svg>
