<svg width="31" height="32" viewBox="0 0 31 32" fill="none" xmlns="http://www.w3.org/2000/svg">
<path d="M22.1529 11.4351C23.4135 11.4351 24.4355 10.4132 24.4355 9.15251C24.4355 7.89186 23.4135 6.8699 22.1529 6.8699C20.8922 6.8699 19.8702 7.89186 19.8702 9.15251C19.8702 10.4132 20.8922 11.4351 22.1529 11.4351Z" fill="#0F5245"/>
<path d="M1.60938 14.4786C1.60938 8.74012 1.60937 5.87012 3.39285 4.08817C5.17481 2.30469 8.04481 2.30469 13.7833 2.30469H16.8268C22.5652 2.30469 25.4352 2.30469 27.2172 4.08817C29.0007 5.87012 29.0007 8.74012 29.0007 14.4786V17.5221C29.0007 23.2606 29.0007 26.1306 27.2172 27.9125C25.4352 29.696 22.5652 29.696 16.8268 29.696H13.7833C8.04481 29.696 5.17481 29.696 3.39285 27.9125C1.60937 26.1306 1.60938 23.2606 1.60938 17.5221V14.4786Z" stroke="#0F5245" stroke-width="3"/>
<path d="M22.1529 11.4351C23.4135 11.4351 24.4355 10.4132 24.4355 9.15251C24.4355 7.89186 23.4135 6.8699 22.1529 6.8699C20.8922 6.8699 19.8702 7.89186 19.8702 9.15251C19.8702 10.4132 20.8922 11.4351 22.1529 11.4351Z" stroke="#0F5245" stroke-width="3"/>
<path d="M15.305 20.5656C17.8263 20.5656 19.8702 18.5216 19.8702 16.0003C19.8702 13.479 17.8263 11.4351 15.305 11.4351C12.7837 11.4351 10.7398 13.479 10.7398 16.0003C10.7398 18.5216 12.7837 20.5656 15.305 20.5656Z" stroke="#0F5245" stroke-width="3"/>
</svg>
