<svg width="33" height="34" viewBox="0 0 33 34" fill="none" xmlns="http://www.w3.org/2000/svg">
<path d="M17.0001 7C12.5891 7 9.00008 10.589 9.00008 14.995C8.97108 21.44 16.6961 26.784 17.0001 27C17.0001 27 25.0291 21.44 25.0001 15C25.0001 10.589 21.4111 7 17.0001 7ZM17.0001 19C14.7901 19 13.0001 17.21 13.0001 15C13.0001 12.79 14.7901 11 17.0001 11C19.2101 11 21.0001 12.79 21.0001 15C21.0001 17.21 19.2101 19 17.0001 19Z" fill="white"/>
<path d="M32.5 17C32.5 26.1269 25.3226 33.5 16.5 33.5C7.67741 33.5 0.5 26.1269 0.5 17C0.5 7.87313 7.67741 0.5 16.5 0.5C25.3226 0.5 32.5 7.87313 32.5 17Z" stroke="white"/>
</svg>
