<svg width="112" height="79" viewBox="0 0 112 79" fill="none" xmlns="http://www.w3.org/2000/svg">
<g filter="url(#filter0_d_732_3210)">
<rect x="5.32292" y="1.32292" width="101.354" height="68.3542" rx="14.5521" fill="white" stroke="#A4D9CF" stroke-width="2.64583"/>
<path fill-rule="evenodd" clip-rule="evenodd" d="M33.4172 45.0879H28.7948C28.4785 45.0879 28.2095 45.3167 28.1602 45.6275L26.2906 57.4285C26.2535 57.6614 26.4346 57.8713 26.6718 57.8713H28.8786C29.1949 57.8713 29.464 57.6424 29.5133 57.331L30.0175 54.1482C30.0662 53.8365 30.3358 53.6079 30.6515 53.6079H32.1148C35.1597 53.6079 36.9169 52.1409 37.3761 49.2339C37.5829 47.9621 37.3849 46.9628 36.7865 46.2628C36.1297 45.4946 34.9642 45.0879 33.4172 45.0879ZM33.9505 49.398C33.6978 51.0494 32.4304 51.0494 31.2051 51.0494H30.5075L30.9969 47.9652C31.0259 47.779 31.1881 47.6417 31.3774 47.6417H31.6971C32.5318 47.6417 33.3193 47.6417 33.7262 48.1153C33.9687 48.3981 34.0431 48.8179 33.9505 49.398ZM47.2347 49.3451H45.0211C44.8325 49.3451 44.6696 49.4824 44.6405 49.6689L44.5426 50.2852L44.3878 50.0619C43.9086 49.3694 42.8401 49.138 41.7735 49.138C39.3272 49.138 37.2382 50.9824 36.8312 53.5699C36.6198 54.8604 36.9204 56.0944 37.6557 56.9552C38.3304 57.7464 39.2957 58.0762 40.4439 58.0762C42.4147 58.0762 43.5079 56.8144 43.5079 56.8144L43.4091 57.4269C43.3718 57.6611 43.5529 57.871 43.7888 57.871H45.7828C46.0999 57.871 46.3674 57.6421 46.4174 57.3307L47.6138 49.7879C47.6516 49.5559 47.4712 49.3451 47.2347 49.3451ZM44.1491 53.6343C43.9355 54.8934 42.9318 55.7385 41.6518 55.7385C41.0091 55.7385 40.4952 55.5333 40.1655 55.1444C39.8383 54.7582 39.7138 54.2083 39.818 53.596C40.0176 52.3476 41.0382 51.4751 42.2987 51.4751C42.9271 51.4751 43.4381 51.6828 43.7747 52.0751C44.1119 52.4716 44.2458 53.0246 44.1491 53.6343ZM56.7993 49.3448H59.0238C59.3353 49.3448 59.5171 49.6926 59.34 49.947L51.9418 60.579C51.822 60.7512 51.6246 60.8536 51.4138 60.8536H49.1921C48.8793 60.8536 48.6967 60.503 48.8778 60.248L51.1814 57.0106L48.7314 49.852C48.6466 49.6032 48.8311 49.3448 49.097 49.3448H51.2827C51.5667 49.3448 51.8173 49.5304 51.8992 49.801L53.1995 54.1245L56.2676 49.6253C56.3877 49.4497 56.5872 49.3448 56.7993 49.3448Z" fill="#253B80"/>
<path fill-rule="evenodd" clip-rule="evenodd" d="M80.9168 57.4284L82.8139 45.4116C82.843 45.2251 83.0053 45.0878 83.1939 45.0871H85.3296C85.5654 45.0871 85.7465 45.2976 85.7093 45.5306L83.8385 57.3309C83.7897 57.6423 83.5208 57.8712 83.2039 57.8712H81.2966C81.0607 57.8712 80.8796 57.6613 80.9168 57.4284ZM66.3884 45.0878H61.7652C61.4496 45.0878 61.1806 45.3166 61.1311 45.6274L59.2616 57.4284C59.2244 57.6613 59.4055 57.8712 59.6417 57.8712H62.0138C62.2343 57.8712 62.4229 57.7111 62.4573 57.4932L62.9878 54.1481C63.0366 53.8363 63.3062 53.6078 63.6218 53.6078H65.0844C68.13 53.6078 69.8869 52.1407 70.3463 49.2338C70.5537 47.962 70.3545 46.9627 69.7564 46.2627C69.0999 45.4944 67.9354 45.0878 66.3884 45.0878ZM66.9217 49.3979C66.6696 51.0493 65.4022 51.0493 64.1761 51.0493H63.4792L63.9693 47.9651C63.9984 47.7789 64.1592 47.6416 64.349 47.6416H64.6687C65.5029 47.6416 66.2911 47.6416 66.6977 48.1152C66.9405 48.398 67.0143 48.8178 66.9217 49.3979ZM80.2046 49.345H77.9926C77.8025 49.345 77.6411 49.4823 77.6126 49.6688L77.5147 50.2851L77.3592 50.0618C76.8801 49.3692 75.8122 49.1379 74.7456 49.1379C72.2994 49.1379 70.2109 50.9823 69.804 53.5698C69.5932 54.8602 69.8925 56.0943 70.6279 56.9551C71.3038 57.7463 72.2678 58.0761 73.416 58.0761C75.3868 58.0761 76.4797 56.8143 76.4797 56.8143L76.3812 57.4268C76.344 57.661 76.5251 57.8709 76.7625 57.8709H78.7555C79.0711 57.8709 79.3401 57.642 79.3895 57.3306L80.5865 49.7878C80.6231 49.5558 80.442 49.345 80.2046 49.345ZM77.1193 53.6342C76.907 54.8932 75.902 55.7384 74.6218 55.7384C73.9803 55.7384 73.4654 55.5332 73.1354 55.1442C72.8083 54.7581 72.6853 54.2082 72.7882 53.5959C72.9887 52.3475 74.0081 51.475 75.2686 51.475C75.8973 51.475 76.4081 51.6827 76.7449 52.075C77.0834 52.4715 77.2172 53.0245 77.1193 53.6342Z" fill="#179BD7"/>
<path d="M50.5238 40.866L51.0922 37.2724L49.8263 37.2432H43.7818L47.9825 10.7252C47.9953 10.6451 48.0378 10.5705 48.0998 10.5175C48.1617 10.4645 48.2411 10.4352 48.3237 10.4352H58.5157C61.8994 10.4352 64.2343 11.1362 65.4536 12.5198C66.025 13.1689 66.3891 13.8472 66.5652 14.5936C66.7497 15.3769 66.7532 16.3126 66.5727 17.4539L66.5596 17.5372V18.2685L67.1313 18.5909C67.6127 18.8451 67.9949 19.1361 68.2883 19.4693C68.7775 20.0242 69.0937 20.7296 69.2273 21.5658C69.3652 22.4258 69.3196 23.4492 69.0937 24.6078C68.8329 25.9406 68.4112 27.1013 67.842 28.0512C67.3181 28.9263 66.6509 29.6521 65.8589 30.2148C65.1026 30.7491 64.204 31.1549 63.1881 31.4146C62.2034 31.6696 61.0812 31.7986 59.8501 31.7986H59.0569C58.4898 31.7986 57.9387 32.0019 57.5064 32.3666C57.0729 32.7387 56.7857 33.2469 56.6978 33.8031L56.6381 34.1266L55.6341 40.4603L55.5884 40.6929C55.5765 40.7667 55.5559 40.8034 55.5255 40.8284C55.4983 40.8508 55.4592 40.866 55.4211 40.866H50.5238Z" fill="#253B80"/>
<path d="M67.6724 17.622C67.6421 17.8156 67.6074 18.0136 67.5683 18.2169C66.224 25.0874 61.6257 27.4609 55.7526 27.4609H52.7624C52.0443 27.4609 51.439 27.9801 51.327 28.6855L49.796 38.3525L49.3625 41.0925C49.2896 41.5556 49.6483 41.9732 50.1175 41.9732H55.4214C56.0494 41.9732 56.5827 41.5188 56.6816 40.9022L56.7338 40.6338L57.7325 34.3248L57.7966 33.9788C57.8942 33.36 58.4288 32.9057 59.0568 32.9057H59.8501C64.9885 32.9057 69.0112 30.8286 70.1869 24.8181C70.678 22.3072 70.4237 20.2107 69.1241 18.7362C68.7309 18.2916 68.243 17.9227 67.6724 17.622Z" fill="#179BD7"/>
<path d="M66.2659 17.0642C66.0607 17.0047 65.8486 16.9506 65.6312 16.902C65.4129 16.8544 65.1889 16.8122 64.9587 16.7754C64.1524 16.6456 63.2691 16.5839 62.3226 16.5839H54.3341C54.1374 16.5839 53.9507 16.6283 53.7833 16.7083C53.4149 16.8846 53.1412 17.2319 53.0749 17.6571L51.3752 28.3733L51.3264 28.6859C51.4384 27.9806 52.0436 27.4613 52.7618 27.4613H55.752C61.6251 27.4613 66.2236 25.0868 67.5677 18.2174C67.6077 18.014 67.6415 17.8161 67.6718 17.6225C67.3318 17.4429 66.9634 17.2893 66.5668 17.1583C66.4692 17.1259 66.3681 17.0945 66.2659 17.0642Z" fill="#222D65"/>
<path d="M53.0749 17.6568C53.1412 17.2317 53.4152 16.8844 53.7833 16.7092C53.9519 16.6291 54.1377 16.5847 54.3341 16.5847H62.3229C63.2694 16.5847 64.1527 16.6464 64.9587 16.7762C65.1892 16.813 65.4132 16.8552 65.6315 16.9028C65.8489 16.9515 66.0607 17.0056 66.2662 17.0651C66.3681 17.0954 66.4692 17.1267 66.568 17.1581C66.9646 17.289 67.3331 17.4437 67.6731 17.6222C68.0731 15.0832 67.6699 13.3545 66.2912 11.7892C64.7711 10.0659 62.0273 9.32809 58.5167 9.32809H48.3243C47.6071 9.32809 46.9956 9.84733 46.8846 10.5538L42.6395 37.3444C42.5557 37.8744 42.9664 38.3527 43.5031 38.3527H49.7956L51.3755 28.3731L53.0749 17.6568Z" fill="#253B80"/>
</g>
<defs>
<filter id="filter0_d_732_3210" x="2.38419e-07" y="0" width="112" height="79" filterUnits="userSpaceOnUse" color-interpolation-filters="sRGB">
<feFlood flood-opacity="0" result="BackgroundImageFix"/>
<feColorMatrix in="SourceAlpha" type="matrix" values="0 0 0 0 0 0 0 0 0 0 0 0 0 0 0 0 0 0 127 0" result="hardAlpha"/>
<feOffset dy="4"/>
<feGaussianBlur stdDeviation="2"/>
<feComposite in2="hardAlpha" operator="out"/>
<feColorMatrix type="matrix" values="0 0 0 0 0.470588 0 0 0 0 0.85098 0 0 0 0 0.776471 0 0 0 1 0"/>
<feBlend mode="normal" in2="BackgroundImageFix" result="effect1_dropShadow_732_3210"/>
<feBlend mode="normal" in="SourceGraphic" in2="effect1_dropShadow_732_3210" result="shape"/>
</filter>
</defs>
</svg>
