<svg width="31" height="26" viewBox="0 0 31 26" fill="none" xmlns="http://www.w3.org/2000/svg">
<path fill-rule="evenodd" clip-rule="evenodd" d="M15.2174 0.826172C16.5185 0.826172 17.853 0.85965 19.1465 0.914433L20.6743 0.987476L22.1367 1.07422L23.5063 1.16704L24.7572 1.26443C26.1148 1.36775 27.3925 1.94683 28.3651 2.8997C29.3378 3.85256 29.943 5.11808 30.0741 6.47335L30.135 7.12008L30.2491 8.50487C30.3556 9.93987 30.4348 11.5042 30.4348 13.0001C30.4348 14.496 30.3556 16.0603 30.2491 17.4953L30.135 18.8801L30.0741 19.5268C29.9429 20.8823 29.3375 22.148 28.3646 23.1009C27.3916 24.0538 26.1136 24.6328 24.7556 24.7357L23.5078 24.8316L22.1383 24.926L20.6743 25.0127L19.1465 25.0857C17.8376 25.1424 16.5276 25.1719 15.2174 25.174C13.9072 25.1719 12.5972 25.1424 11.2883 25.0857L9.76043 25.0127L8.29804 24.926L6.92848 24.8316L5.67761 24.7357C4.31993 24.6324 3.04226 24.0533 2.06963 23.1005C1.097 22.1476 0.491812 20.8821 0.360652 19.5268L0.299783 18.8801L0.185652 17.4953C0.0697455 15.9996 0.00782119 14.5002 0 13.0001C0 11.5042 0.0791304 9.93987 0.185652 8.50487L0.299783 7.12008L0.360652 6.47335C0.491761 5.11832 1.09673 3.85299 2.06905 2.90016C3.04137 1.94733 4.31868 1.36809 5.67609 1.26443L6.92543 1.16704L8.295 1.07422L9.75891 0.987476L11.2867 0.914433C12.5962 0.857713 13.9067 0.828286 15.2174 0.826172ZM12.1739 9.30987V16.6903C12.1739 17.3933 12.9348 17.8316 13.5435 17.4816L19.9348 13.7914C20.0739 13.7113 20.1894 13.596 20.2697 13.4571C20.35 13.3182 20.3923 13.1606 20.3923 13.0001C20.3923 12.8396 20.35 12.682 20.2697 12.5431C20.1894 12.4041 20.0739 12.2888 19.9348 12.2088L13.5435 8.52008C13.4046 8.43992 13.2471 8.39774 13.0868 8.39776C12.9265 8.39779 12.769 8.44003 12.6302 8.52023C12.4914 8.60044 12.3761 8.71578 12.296 8.85466C12.2159 8.99354 12.1738 9.15107 12.1739 9.31139V9.30987Z" fill="#0F5245"/>
</svg>
