<svg width="46" height="44" viewBox="0 0 46 44" fill="none" xmlns="http://www.w3.org/2000/svg">
<rect x="0.183136" y="0.691772" width="45.3438" height="43.2373" rx="10" fill="#0F5245"/>
<path d="M43.4019 15.3783C43.1362 14.956 40.5139 13.876 40.5139 13.876C40.97 13.6513 41.2818 13.6049 41.2818 12.676C41.2818 11.6626 41.2764 11.3248 40.5679 11.3248H38.1644C38.1546 11.3045 38.144 11.2834 38.1343 11.2623C36.5826 8.03133 36.3745 7.21472 34.0604 6.11521C30.9563 4.64328 25.1369 4.56897 22.8555 4.56897C20.5741 4.56897 14.7547 4.64328 11.6533 6.11521C9.33649 7.21303 9.39406 7.77798 7.57942 11.2623C7.57942 11.2716 7.56082 11.2961 7.54399 11.3248H5.13776C4.43458 11.3248 4.42926 11.6626 4.42926 12.676C4.42926 13.6049 4.741 13.6513 5.1971 13.876C5.1971 13.876 2.66333 15.0405 2.30908 15.3783C1.95483 15.7161 1.60059 18.0806 1.60059 22.1341C1.60059 26.1876 1.95483 30.2411 1.95483 30.2411H3.01227C3.01227 31.4234 3.19471 31.5923 3.72608 31.5923H10.8111C11.3424 31.5923 11.5196 31.4234 11.5196 30.2411H34.1915C34.1915 31.4234 34.3686 31.5923 34.9 31.5923H42.1621C42.5163 31.5923 42.6934 31.3389 42.6934 30.2411H43.7562C43.7562 30.2411 44.1104 26.1031 44.1104 22.1341C44.1104 18.1651 43.6676 15.8005 43.4019 15.3783ZM11.2769 19.1734C9.66392 19.3415 8.04271 19.4278 6.42014 19.4318C4.6117 19.4318 4.54971 19.5424 4.42218 18.4657C4.37424 17.9729 4.3894 17.4763 4.46734 16.987L4.52314 16.7294H4.78882C5.85157 16.7294 6.84967 16.7725 8.73427 17.302C9.6928 17.5763 10.5944 18.0065 11.3991 18.5738C11.7852 18.8406 11.8738 19.094 11.8738 19.094L11.2769 19.1734ZM33.1659 25.2536L32.7745 26.1876H12.9365C12.9365 26.1876 12.9711 26.1361 12.4937 25.2435C12.1395 24.5831 12.5823 24.1608 13.2828 23.921C14.6396 23.4549 18.6045 22.1341 22.8555 22.1341C27.1065 22.1341 31.1502 23.2725 32.4645 23.921C32.9516 24.1608 33.5565 24.3297 33.1659 25.2587V25.2536ZM10.4054 13.724C10.1194 13.7397 9.83266 13.7417 9.54639 13.7299C9.77753 13.338 9.90595 12.9014 10.1318 12.4454C10.8403 11.0098 11.6506 9.38503 13.0933 8.70015C15.1781 7.71043 19.499 7.26454 22.8555 7.26454C26.212 7.26454 30.533 7.70705 32.6177 8.70015C34.0604 9.38503 34.8672 11.0106 35.5792 12.4454C35.8068 12.9057 35.9335 13.3456 36.1708 13.74C35.9937 13.7493 35.79 13.74 35.3038 13.724H10.4054ZM41.2003 18.4623C41.0108 19.5162 41.1879 19.4318 39.2909 19.4318C37.6683 19.4278 36.0471 19.3415 34.4341 19.1734C34.1817 19.1303 34.11 18.7241 34.3119 18.5738C35.1125 18.0002 36.0153 17.5693 36.9767 17.302C38.8614 16.7725 39.9223 16.7016 40.97 16.737C41.0404 16.7396 41.1073 16.7669 41.1578 16.8137C41.2083 16.8604 41.2389 16.9234 41.2437 16.9904C41.2937 17.482 41.2791 17.9776 41.2003 18.4657V18.4623Z" fill="#F8F8F8"/>
</svg>
